<?xml version="1.0" encoding="UTF-8" standalone="no"?>
<svg
   xmlns:dc="http://purl.org/dc/elements/1.1/"
   xmlns:cc="http://creativecommons.org/ns#"
   xmlns:rdf="http://www.w3.org/1999/02/22-rdf-syntax-ns#"
   xmlns:svg="http://www.w3.org/2000/svg"
   xmlns="http://www.w3.org/2000/svg"
   xmlns:sodipodi="http://sodipodi.sourceforge.net/DTD/sodipodi-0.dtd"
   xmlns:inkscape="http://www.inkscape.org/namespaces/inkscape"
   viewBox="0 0 132.15733 122.196"
   height="122.196"
   width="132.15733"
   xml:space="preserve"
   id="svg2"
   version="1.1"
   inkscape:version="0.91 r13725"
   sodipodi:docname="Kakao Corp. symbol - 2010.svg"><sodipodi:namedview
     pagecolor="#ffffff"
     bordercolor="#666666"
     borderopacity="1"
     objecttolerance="10"
     gridtolerance="10"
     guidetolerance="10"
     inkscape:pageopacity="0"
     inkscape:pageshadow="2"
     inkscape:window-width="1680"
     inkscape:window-height="988"
     id="namedview3691"
     showgrid="false"
     fit-margin-top="1"
     fit-margin-left="1"
     fit-margin-bottom="1"
     fit-margin-right="1"
     inkscape:zoom="0.84812902"
     inkscape:cx="148.26834"
     inkscape:cy="16.383374"
     inkscape:window-x="-8"
     inkscape:window-y="-8"
     inkscape:window-maximized="1"
     inkscape:current-layer="g10" /><metadata
     id="metadata8"><rdf:RDF><cc:Work
         rdf:about=""><dc:format>image/svg+xml</dc:format><dc:type
           rdf:resource="http://purl.org/dc/dcmitype/StillImage" /><dc:title></dc:title></cc:Work></rdf:RDF></metadata><defs
     id="defs6"><clipPath
       id="clipPath692"
       clipPathUnits="userSpaceOnUse"><path
         id="path690"
         d="m 0,595.28 841.89,0 L 841.89,0 0,0 Z"
         inkscape:connector-curvature="0" /></clipPath></defs><g
     transform="matrix(1.3333333,0,0,-1.3333333,-440.47542,493.80439)"
     id="g10"><g
   id="g12" />

<g
   id="g686"
   transform="translate(216.65337,-7.0743955)"><g
     clip-path="url(#clipPath692)"
     id="g688"><g
       transform="translate(163.2612,376.6777)"
       id="g694"><path
         id="path696"
         style="fill:#3c1e1e;fill-opacity:1;fill-rule:nonzero;stroke:none"
         d="m 0,0 c -26.953,0 -48.808,-17.256 -48.808,-38.555 0,-13.681 9.052,-25.693 22.646,-32.549 l -4.599,-17.167 c -0.176,-0.527 -0.03,-1.085 0.352,-1.465 0.263,-0.265 0.614,-0.411 0.995,-0.411 0.294,0 0.586,0.117 0.85,0.322 l 19.775,13.36 c 2.872,-0.41 5.802,-0.644 8.789,-0.644 26.953,0 48.81,17.255 48.81,38.554 C 48.81,-17.256 26.953,0 0,0"
         inkscape:connector-curvature="0" /></g></g></g><flowRoot
   xml:space="preserve"
   id="flowRoot3693"
   style="font-style:normal;font-weight:normal;font-size:40px;line-height:125%;font-family:sans-serif;letter-spacing:0px;word-spacing:0px;fill:#000000;fill-opacity:1;stroke:none;stroke-width:1px;stroke-linecap:butt;stroke-linejoin:miter;stroke-opacity:1"
   transform="matrix(0.75000002,0,0,-0.75000002,0,595.28002)"><flowRegion
     id="flowRegion3695"><rect
       id="rect3697"
       width="116.72752"
       height="41.267307"
       x="468.08917"
       y="152.29482" /></flowRegion><flowPara
     id="flowPara3699"></flowPara></flowRoot></g></svg>