<svg width="555" height="212" viewBox="0 0 555 212" fill="none" xmlns="http://www.w3.org/2000/svg">
<mask id="path-1-outside-1_1302_3" maskUnits="userSpaceOnUse" x="0" y="52" width="545" height="129" fill="black">
<rect fill="white" y="52" width="545" height="129"/>
<path d="M80.596 69.464C81.324 70.608 81.948 72.168 82.468 74.144C83.092 76.016 83.404 77.992 83.404 80.072C83.404 84.128 82.52 87.04 80.752 88.808C79.088 90.472 76.8 91.304 73.888 91.304H41.128V108.932H75.292C76.124 110.076 76.8 111.584 77.32 113.456C77.944 115.328 78.256 117.304 78.256 119.384C78.256 123.336 77.372 126.196 75.604 127.964C73.94 129.628 71.652 130.46 68.74 130.46H41.44V163.376C40.296 163.688 38.476 164 35.98 164.312C33.588 164.624 31.196 164.78 28.804 164.78C26.412 164.78 24.28 164.572 22.408 164.156C20.64 163.844 19.132 163.22 17.884 162.284C16.636 161.348 15.7 160.048 15.076 158.384C14.452 156.72 14.14 154.536 14.14 151.832V83.972C14.14 79.5 15.44 75.964 18.04 73.364C20.64 70.764 24.176 69.464 28.648 69.464H80.596Z"/>
<path d="M169.951 126.092C169.951 132.54 168.963 138.312 166.987 143.408C165.011 148.4 162.203 152.612 158.563 156.044C155.027 159.476 150.763 162.076 145.771 163.844C140.779 165.612 135.215 166.496 129.079 166.496C122.943 166.496 117.379 165.56 112.387 163.688C107.395 161.816 103.079 159.164 99.4391 155.732C95.9031 152.196 93.1471 147.932 91.1711 142.94C89.1951 137.948 88.2071 132.332 88.2071 126.092C88.2071 119.956 89.1951 114.392 91.1711 109.4C93.1471 104.408 95.9031 100.196 99.4391 96.764C103.079 93.228 107.395 90.524 112.387 88.652C117.379 86.78 122.943 85.844 129.079 85.844C135.215 85.844 140.779 86.832 145.771 88.808C150.763 90.68 155.027 93.384 158.563 96.92C162.203 100.352 165.011 104.564 166.987 109.556C168.963 114.548 169.951 120.06 169.951 126.092ZM115.351 126.092C115.351 132.436 116.547 137.324 118.939 140.756C121.435 144.084 124.867 145.748 129.235 145.748C133.603 145.748 136.931 144.032 139.219 140.6C141.611 137.168 142.807 132.332 142.807 126.092C142.807 119.852 141.611 115.068 139.219 111.74C136.827 108.308 133.447 106.592 129.079 106.592C124.711 106.592 121.331 108.308 118.939 111.74C116.547 115.068 115.351 119.852 115.351 126.092Z"/>
<path d="M209.409 163.844C208.369 164.156 206.705 164.468 204.417 164.78C202.233 165.092 199.945 165.248 197.553 165.248C195.265 165.248 193.185 165.092 191.313 164.78C189.545 164.468 188.037 163.844 186.789 162.908C185.541 161.972 184.553 160.724 183.825 159.164C183.201 157.5 182.889 155.368 182.889 152.768V105.968C182.889 103.576 183.305 101.548 184.137 99.884C185.073 98.116 186.373 96.556 188.037 95.204C189.701 93.852 191.729 92.656 194.121 91.616C196.617 90.472 199.269 89.484 202.077 88.652C204.885 87.82 207.797 87.196 210.813 86.78C213.829 86.26 216.845 86 219.861 86C224.853 86 228.805 86.988 231.717 88.964C234.629 90.836 236.085 93.956 236.085 98.324C236.085 99.78 235.877 101.236 235.461 102.692C235.045 104.044 234.525 105.292 233.901 106.436C231.717 106.436 229.481 106.54 227.193 106.748C224.905 106.956 222.669 107.268 220.485 107.684C218.301 108.1 216.221 108.568 214.245 109.088C212.373 109.504 210.761 110.024 209.409 110.648V163.844Z"/>
<path d="M329.893 163.376C328.749 163.688 326.981 164 324.589 164.312C322.197 164.624 319.857 164.78 317.569 164.78C312.785 164.78 309.197 164 306.805 162.44C304.413 160.776 303.217 157.344 303.217 152.144V131.084C300.617 127.236 297.809 122.972 294.793 118.292C291.777 113.612 288.813 108.828 285.901 103.94C282.989 99.052 280.285 94.268 277.789 89.588C275.293 84.804 273.265 80.436 271.705 76.484C273.057 74.612 274.877 72.896 277.165 71.336C279.557 69.776 282.469 68.996 285.901 68.996C289.957 68.996 293.233 69.828 295.729 71.492C298.329 73.156 300.773 76.276 303.061 80.852L316.009 106.904H316.945C318.401 103.68 319.649 100.768 320.689 98.168C321.833 95.464 322.925 92.812 323.965 90.212C325.005 87.508 326.097 84.752 327.241 81.944C328.385 79.032 329.685 75.704 331.141 71.96C333.013 71.024 335.093 70.296 337.381 69.776C339.669 69.256 341.853 68.996 343.933 68.996C347.573 68.996 350.641 69.984 353.137 71.96C355.737 73.832 357.037 76.692 357.037 80.54C357.037 81.788 356.777 83.296 356.257 85.064C355.737 86.832 354.541 89.536 352.669 93.176C350.797 96.712 348.041 101.548 344.401 107.684C340.865 113.82 336.029 121.828 329.893 131.708V163.376Z"/>
<path d="M405.275 113.3C409.643 113.3 412.971 112.312 415.259 110.336C417.651 108.256 418.847 105.136 418.847 100.976C418.847 97.024 417.599 94.008 415.103 91.928C412.711 89.744 409.175 88.652 404.495 88.652C402.831 88.652 401.427 88.704 400.283 88.808C399.243 88.808 398.151 88.912 397.007 89.12V113.3H405.275ZM397.163 163.376C396.019 163.688 394.199 164 391.703 164.312C389.311 164.624 386.919 164.78 384.527 164.78C382.135 164.78 380.003 164.572 378.131 164.156C376.363 163.844 374.855 163.22 373.607 162.284C372.359 161.348 371.423 160.048 370.799 158.384C370.175 156.72 369.863 154.536 369.863 151.832V78.356C369.863 76.172 370.435 74.508 371.579 73.364C372.827 72.116 374.491 71.128 376.571 70.4C380.107 69.152 384.111 68.268 388.583 67.748C393.159 67.124 397.735 66.812 402.311 66.812C416.663 66.812 427.635 69.88 435.227 76.016C442.819 82.152 446.615 90.472 446.615 100.976C446.615 106.072 445.783 110.7 444.119 114.86C442.559 118.916 440.167 122.452 436.943 125.468C433.823 128.38 429.819 130.668 424.931 132.332C420.147 133.892 414.583 134.672 408.239 134.672H397.163V163.376Z"/>
<path d="M486.577 126.404C482.001 124.844 477.841 123.284 474.097 121.724C470.353 120.06 467.129 118.084 464.425 115.796C461.721 113.508 459.589 110.804 458.029 107.684C456.573 104.46 455.845 100.56 455.845 95.984C455.845 87.144 459.225 80.072 465.985 74.768C472.849 69.464 482.417 66.812 494.689 66.812C499.161 66.812 503.321 67.124 507.169 67.748C511.017 68.372 514.293 69.36 516.997 70.712C519.805 71.96 521.989 73.624 523.549 75.704C525.109 77.68 525.889 80.02 525.889 82.724C525.889 85.428 525.265 87.768 524.017 89.744C522.769 91.616 521.261 93.228 519.493 94.58C517.205 93.124 514.137 91.876 510.289 90.836C506.441 89.692 502.229 89.12 497.653 89.12C492.973 89.12 489.541 89.796 487.357 91.148C485.173 92.396 484.081 94.008 484.081 95.984C484.081 97.544 484.757 98.844 486.109 99.884C487.461 100.82 489.489 101.704 492.193 102.536L500.461 105.188C510.237 108.308 517.725 112.312 522.925 117.2C528.229 121.984 530.881 128.536 530.881 136.856C530.881 145.696 527.397 152.872 520.429 158.384C513.461 163.792 503.217 166.496 489.697 166.496C484.913 166.496 480.441 166.08 476.281 165.248C472.225 164.52 468.637 163.428 465.517 161.972C462.501 160.412 460.109 158.54 458.341 156.356C456.677 154.068 455.845 151.468 455.845 148.556C455.845 145.54 456.729 142.992 458.497 140.912C460.265 138.728 462.189 137.064 464.269 135.92C467.181 138.208 470.717 140.184 474.877 141.848C479.141 143.512 483.769 144.344 488.761 144.344C493.857 144.344 497.445 143.564 499.525 142.004C501.605 140.444 502.645 138.624 502.645 136.544C502.645 134.464 501.813 132.904 500.149 131.864C498.485 130.72 496.145 129.628 493.129 128.588L486.577 126.404Z"/>
</mask>
<path d="M80.596 69.464C81.324 70.608 81.948 72.168 82.468 74.144C83.092 76.016 83.404 77.992 83.404 80.072C83.404 84.128 82.52 87.04 80.752 88.808C79.088 90.472 76.8 91.304 73.888 91.304H41.128V108.932H75.292C76.124 110.076 76.8 111.584 77.32 113.456C77.944 115.328 78.256 117.304 78.256 119.384C78.256 123.336 77.372 126.196 75.604 127.964C73.94 129.628 71.652 130.46 68.74 130.46H41.44V163.376C40.296 163.688 38.476 164 35.98 164.312C33.588 164.624 31.196 164.78 28.804 164.78C26.412 164.78 24.28 164.572 22.408 164.156C20.64 163.844 19.132 163.22 17.884 162.284C16.636 161.348 15.7 160.048 15.076 158.384C14.452 156.72 14.14 154.536 14.14 151.832V83.972C14.14 79.5 15.44 75.964 18.04 73.364C20.64 70.764 24.176 69.464 28.648 69.464H80.596Z" fill="#FF0000"/>
<path d="M169.951 126.092C169.951 132.54 168.963 138.312 166.987 143.408C165.011 148.4 162.203 152.612 158.563 156.044C155.027 159.476 150.763 162.076 145.771 163.844C140.779 165.612 135.215 166.496 129.079 166.496C122.943 166.496 117.379 165.56 112.387 163.688C107.395 161.816 103.079 159.164 99.4391 155.732C95.9031 152.196 93.1471 147.932 91.1711 142.94C89.1951 137.948 88.2071 132.332 88.2071 126.092C88.2071 119.956 89.1951 114.392 91.1711 109.4C93.1471 104.408 95.9031 100.196 99.4391 96.764C103.079 93.228 107.395 90.524 112.387 88.652C117.379 86.78 122.943 85.844 129.079 85.844C135.215 85.844 140.779 86.832 145.771 88.808C150.763 90.68 155.027 93.384 158.563 96.92C162.203 100.352 165.011 104.564 166.987 109.556C168.963 114.548 169.951 120.06 169.951 126.092ZM115.351 126.092C115.351 132.436 116.547 137.324 118.939 140.756C121.435 144.084 124.867 145.748 129.235 145.748C133.603 145.748 136.931 144.032 139.219 140.6C141.611 137.168 142.807 132.332 142.807 126.092C142.807 119.852 141.611 115.068 139.219 111.74C136.827 108.308 133.447 106.592 129.079 106.592C124.711 106.592 121.331 108.308 118.939 111.74C116.547 115.068 115.351 119.852 115.351 126.092Z" fill="#FFD400"/>
<path d="M209.409 163.844C208.369 164.156 206.705 164.468 204.417 164.78C202.233 165.092 199.945 165.248 197.553 165.248C195.265 165.248 193.185 165.092 191.313 164.78C189.545 164.468 188.037 163.844 186.789 162.908C185.541 161.972 184.553 160.724 183.825 159.164C183.201 157.5 182.889 155.368 182.889 152.768V105.968C182.889 103.576 183.305 101.548 184.137 99.884C185.073 98.116 186.373 96.556 188.037 95.204C189.701 93.852 191.729 92.656 194.121 91.616C196.617 90.472 199.269 89.484 202.077 88.652C204.885 87.82 207.797 87.196 210.813 86.78C213.829 86.26 216.845 86 219.861 86C224.853 86 228.805 86.988 231.717 88.964C234.629 90.836 236.085 93.956 236.085 98.324C236.085 99.78 235.877 101.236 235.461 102.692C235.045 104.044 234.525 105.292 233.901 106.436C231.717 106.436 229.481 106.54 227.193 106.748C224.905 106.956 222.669 107.268 220.485 107.684C218.301 108.1 216.221 108.568 214.245 109.088C212.373 109.504 210.761 110.024 209.409 110.648V163.844Z" fill="#FA3EAE"/>
<path d="M329.893 163.376C328.749 163.688 326.981 164 324.589 164.312C322.197 164.624 319.857 164.78 317.569 164.78C312.785 164.78 309.197 164 306.805 162.44C304.413 160.776 303.217 157.344 303.217 152.144V131.084C300.617 127.236 297.809 122.972 294.793 118.292C291.777 113.612 288.813 108.828 285.901 103.94C282.989 99.052 280.285 94.268 277.789 89.588C275.293 84.804 273.265 80.436 271.705 76.484C273.057 74.612 274.877 72.896 277.165 71.336C279.557 69.776 282.469 68.996 285.901 68.996C289.957 68.996 293.233 69.828 295.729 71.492C298.329 73.156 300.773 76.276 303.061 80.852L316.009 106.904H316.945C318.401 103.68 319.649 100.768 320.689 98.168C321.833 95.464 322.925 92.812 323.965 90.212C325.005 87.508 326.097 84.752 327.241 81.944C328.385 79.032 329.685 75.704 331.141 71.96C333.013 71.024 335.093 70.296 337.381 69.776C339.669 69.256 341.853 68.996 343.933 68.996C347.573 68.996 350.641 69.984 353.137 71.96C355.737 73.832 357.037 76.692 357.037 80.54C357.037 81.788 356.777 83.296 356.257 85.064C355.737 86.832 354.541 89.536 352.669 93.176C350.797 96.712 348.041 101.548 344.401 107.684C340.865 113.82 336.029 121.828 329.893 131.708V163.376Z" fill="#8B00FF"/>
<path d="M405.275 113.3C409.643 113.3 412.971 112.312 415.259 110.336C417.651 108.256 418.847 105.136 418.847 100.976C418.847 97.024 417.599 94.008 415.103 91.928C412.711 89.744 409.175 88.652 404.495 88.652C402.831 88.652 401.427 88.704 400.283 88.808C399.243 88.808 398.151 88.912 397.007 89.12V113.3H405.275ZM397.163 163.376C396.019 163.688 394.199 164 391.703 164.312C389.311 164.624 386.919 164.78 384.527 164.78C382.135 164.78 380.003 164.572 378.131 164.156C376.363 163.844 374.855 163.22 373.607 162.284C372.359 161.348 371.423 160.048 370.799 158.384C370.175 156.72 369.863 154.536 369.863 151.832V78.356C369.863 76.172 370.435 74.508 371.579 73.364C372.827 72.116 374.491 71.128 376.571 70.4C380.107 69.152 384.111 68.268 388.583 67.748C393.159 67.124 397.735 66.812 402.311 66.812C416.663 66.812 427.635 69.88 435.227 76.016C442.819 82.152 446.615 90.472 446.615 100.976C446.615 106.072 445.783 110.7 444.119 114.86C442.559 118.916 440.167 122.452 436.943 125.468C433.823 128.38 429.819 130.668 424.931 132.332C420.147 133.892 414.583 134.672 408.239 134.672H397.163V163.376Z" fill="#66CC00"/>
<path d="M486.577 126.404C482.001 124.844 477.841 123.284 474.097 121.724C470.353 120.06 467.129 118.084 464.425 115.796C461.721 113.508 459.589 110.804 458.029 107.684C456.573 104.46 455.845 100.56 455.845 95.984C455.845 87.144 459.225 80.072 465.985 74.768C472.849 69.464 482.417 66.812 494.689 66.812C499.161 66.812 503.321 67.124 507.169 67.748C511.017 68.372 514.293 69.36 516.997 70.712C519.805 71.96 521.989 73.624 523.549 75.704C525.109 77.68 525.889 80.02 525.889 82.724C525.889 85.428 525.265 87.768 524.017 89.744C522.769 91.616 521.261 93.228 519.493 94.58C517.205 93.124 514.137 91.876 510.289 90.836C506.441 89.692 502.229 89.12 497.653 89.12C492.973 89.12 489.541 89.796 487.357 91.148C485.173 92.396 484.081 94.008 484.081 95.984C484.081 97.544 484.757 98.844 486.109 99.884C487.461 100.82 489.489 101.704 492.193 102.536L500.461 105.188C510.237 108.308 517.725 112.312 522.925 117.2C528.229 121.984 530.881 128.536 530.881 136.856C530.881 145.696 527.397 152.872 520.429 158.384C513.461 163.792 503.217 166.496 489.697 166.496C484.913 166.496 480.441 166.08 476.281 165.248C472.225 164.52 468.637 163.428 465.517 161.972C462.501 160.412 460.109 158.54 458.341 156.356C456.677 154.068 455.845 151.468 455.845 148.556C455.845 145.54 456.729 142.992 458.497 140.912C460.265 138.728 462.189 137.064 464.269 135.92C467.181 138.208 470.717 140.184 474.877 141.848C479.141 143.512 483.769 144.344 488.761 144.344C493.857 144.344 497.445 143.564 499.525 142.004C501.605 140.444 502.645 138.624 502.645 136.544C502.645 134.464 501.813 132.904 500.149 131.864C498.485 130.72 496.145 129.628 493.129 128.588L486.577 126.404Z" fill="#448FF2"/>
<path d="M80.596 69.464L92.4073 61.9477L88.2812 55.464H80.596V69.464ZM82.468 74.144L68.929 77.7069L69.0438 78.1432L69.1864 78.5712L82.468 74.144ZM41.128 91.304V77.304H27.128V91.304H41.128ZM41.128 108.932H27.128V122.932H41.128V108.932ZM75.292 108.932L86.6143 100.698L82.4211 94.932H75.292V108.932ZM77.32 113.456L63.8308 117.203L63.926 117.546L64.0384 117.883L77.32 113.456ZM75.604 127.964L85.5035 137.863L85.5035 137.863L75.604 127.964ZM41.44 130.46V116.46H27.44V130.46H41.44ZM41.44 163.376L45.1236 176.883L55.44 174.069V163.376H41.44ZM35.98 164.312L34.2435 150.42L34.2064 150.425L34.1693 150.43L35.98 164.312ZM22.408 164.156L25.445 150.489L25.1443 150.423L24.841 150.369L22.408 164.156ZM17.884 162.284L9.484 173.484L9.484 173.484L17.884 162.284ZM15.076 158.384L1.96739 163.3L1.96739 163.3L15.076 158.384ZM80.596 69.464L68.7847 76.9803C68.5868 76.6693 68.5492 76.5361 68.6113 76.6915C68.67 76.8382 68.7853 77.1609 68.929 77.7069L82.468 74.144L96.007 70.5811C95.2857 67.8399 94.1993 64.7639 92.4073 61.9477L80.596 69.464ZM82.468 74.144L69.1864 78.5712C69.3094 78.94 69.404 79.4149 69.404 80.072H83.404H97.404C97.404 76.5691 96.8746 73.092 95.7496 69.7168L82.468 74.144ZM83.404 80.072H69.404C69.404 81.1501 69.2786 81.4488 69.3447 81.2313C69.4274 80.9586 69.792 79.969 70.8525 78.9085L80.752 88.808L90.6515 98.7075C96.277 93.0819 97.404 85.6309 97.404 80.072H83.404ZM80.752 88.808L70.8525 78.9085C71.5176 78.2434 72.2933 77.7812 73.0036 77.5229C73.6608 77.2839 74.0237 77.304 73.888 77.304V91.304V105.304C79.5787 105.304 85.7679 103.591 90.6515 98.7075L80.752 88.808ZM73.888 91.304V77.304H41.128V91.304V105.304H73.888V91.304ZM41.128 91.304H27.128V108.932H41.128H55.128V91.304H41.128ZM41.128 108.932V122.932H75.292V108.932V94.932H41.128V108.932ZM75.292 108.932L63.9697 117.166C63.8481 116.999 63.7662 116.866 63.7167 116.778C63.6673 116.692 63.6465 116.645 63.6479 116.648C63.6492 116.651 63.6692 116.696 63.7026 116.79C63.736 116.885 63.78 117.02 63.8308 117.203L77.32 113.456L90.8093 109.709C89.9969 106.785 88.7236 103.598 86.6143 100.698L75.292 108.932ZM77.32 113.456L64.0384 117.883C64.1614 118.252 64.256 118.727 64.256 119.384H78.256H92.256C92.256 115.881 91.7266 112.404 90.6016 109.029L77.32 113.456ZM78.256 119.384H64.256C64.256 120.379 64.1373 120.618 64.2174 120.359C64.316 120.04 64.6894 119.08 65.7045 118.065L75.604 127.964L85.5035 137.863C91.0739 132.293 92.256 124.964 92.256 119.384H78.256ZM75.604 127.964L65.7045 118.065C66.3696 117.399 67.1453 116.937 67.8556 116.679C68.5128 116.44 68.8757 116.46 68.74 116.46V130.46V144.46C74.4307 144.46 80.6199 142.747 85.5035 137.863L75.604 127.964ZM68.74 130.46V116.46H41.44V130.46V144.46H68.74V130.46ZM41.44 130.46H27.44V163.376H41.44H55.44V130.46H41.44ZM41.44 163.376L37.7564 149.869C37.7878 149.861 37.5325 149.929 36.8515 150.045C36.2096 150.155 35.3507 150.282 34.2435 150.42L35.98 164.312L37.7165 178.204C40.3108 177.88 42.9625 177.472 45.1236 176.883L41.44 163.376ZM35.98 164.312L34.1693 150.43C32.3726 150.664 30.5854 150.78 28.804 150.78V164.78V178.78C31.8066 178.78 34.8034 178.584 37.7908 178.194L35.98 164.312ZM28.804 164.78V150.78C27.1941 150.78 26.1106 150.637 25.445 150.489L22.408 164.156L19.371 177.823C22.4494 178.507 25.6299 178.78 28.804 178.78V164.78ZM22.408 164.156L24.841 150.369C24.9099 150.381 25.5256 150.515 26.284 151.084L17.884 162.284L9.484 173.484C12.7384 175.925 16.3701 177.307 19.975 177.943L22.408 164.156ZM17.884 162.284L26.284 151.084C26.8248 151.49 27.2694 151.957 27.6075 152.427C27.938 152.886 28.1083 153.265 28.1846 153.468L15.076 158.384L1.96739 163.3C3.39527 167.107 5.81299 170.731 9.484 173.484L17.884 162.284ZM15.076 158.384L28.1846 153.468C28.3015 153.78 28.2788 153.837 28.2333 153.518C28.1891 153.209 28.14 152.663 28.14 151.832H14.14H0.140001C0.140001 155.43 0.530089 159.467 1.96739 163.3L15.076 158.384ZM14.14 151.832H28.14V83.972H14.14H0.140001V151.832H14.14ZM14.14 83.972H28.14C28.14 83.0835 28.2692 82.7585 28.2551 82.7969C28.2479 82.8165 28.2166 82.8931 28.1491 82.9993C28.081 83.1064 28.0052 83.1977 27.9395 83.2635L18.04 73.364L8.14051 63.4645C2.36623 69.2388 0.140001 76.6426 0.140001 83.972H14.14ZM18.04 73.364L27.9395 83.2635C27.8737 83.3292 27.7824 83.405 27.6753 83.4731C27.5691 83.5406 27.4925 83.5719 27.4729 83.5791C27.4345 83.5932 27.7595 83.464 28.648 83.464V69.464V55.464C21.3186 55.464 13.9148 57.6902 8.14051 63.4645L18.04 73.364ZM28.648 69.464V83.464H80.596V69.464V55.464H28.648V69.464ZM166.987 143.408L180.004 148.561L180.022 148.515L180.04 148.469L166.987 143.408ZM158.563 156.044L148.959 145.858L148.885 145.927L148.812 145.998L158.563 156.044ZM145.771 163.844L141.097 150.647L141.097 150.647L145.771 163.844ZM112.387 163.688L107.471 176.797L107.471 176.797L112.387 163.688ZM99.4391 155.732L89.5396 165.631L89.6851 165.777L89.8349 165.918L99.4391 155.732ZM91.1711 142.94L78.1538 148.093L78.1538 148.093L91.1711 142.94ZM91.1711 109.4L78.1538 104.247L78.1538 104.247L91.1711 109.4ZM99.4391 96.764L109.19 106.81L109.194 106.806L99.4391 96.764ZM112.387 88.652L117.303 101.761L117.303 101.761L112.387 88.652ZM145.771 88.808L140.618 101.825L140.736 101.872L140.855 101.917L145.771 88.808ZM158.563 96.92L148.664 106.819L148.809 106.965L148.959 107.106L158.563 96.92ZM166.987 109.556L153.97 114.709L153.97 114.709L166.987 109.556ZM118.939 140.756L107.454 148.761L107.593 148.961L107.739 149.156L118.939 140.756ZM139.219 140.6L127.734 132.595L127.651 132.714L127.57 132.834L139.219 140.6ZM139.219 111.74L127.734 119.745L127.792 119.828L127.851 119.911L139.219 111.74ZM118.939 111.74L130.307 119.911L130.367 119.828L130.425 119.745L118.939 111.74ZM169.951 126.092H155.951C155.951 131.114 155.183 135.127 153.934 138.347L166.987 143.408L180.04 148.469C182.744 141.497 183.951 133.966 183.951 126.092H169.951ZM166.987 143.408L153.97 138.255C152.693 141.482 150.999 143.934 148.959 145.858L158.563 156.044L168.167 166.23C173.407 161.29 177.33 155.318 180.004 148.561L166.987 143.408ZM158.563 156.044L148.812 145.998C146.828 147.924 144.334 149.501 141.097 150.647L145.771 163.844L150.445 177.041C157.192 174.651 163.226 171.028 168.314 166.09L158.563 156.044ZM145.771 163.844L141.097 150.647C137.823 151.807 133.871 152.496 129.079 152.496V166.496V180.496C136.559 180.496 143.735 179.417 150.445 177.041L145.771 163.844ZM129.079 166.496V152.496C124.372 152.496 120.505 151.78 117.303 150.579L112.387 163.688L107.471 176.797C114.253 179.34 121.514 180.496 129.079 180.496V166.496ZM112.387 163.688L117.303 150.579C113.936 149.317 111.243 147.62 109.043 145.546L99.4391 155.732L89.8349 165.918C94.9154 170.708 100.854 174.315 107.471 176.797L112.387 163.688ZM99.4391 155.732L109.339 145.833C107.253 143.747 105.513 141.133 104.188 137.787L91.1711 142.94L78.1538 148.093C80.7813 154.731 84.5536 160.645 89.5396 165.631L99.4391 155.732ZM91.1711 142.94L104.188 137.787C102.958 134.679 102.207 130.85 102.207 126.092H88.2071H74.2071C74.2071 133.814 75.4322 141.217 78.1538 148.093L91.1711 142.94ZM88.2071 126.092H102.207C102.207 121.47 102.948 117.687 104.188 114.553L91.1711 109.4L78.1538 104.247C75.4425 111.097 74.2071 118.442 74.2071 126.092H88.2071ZM91.1711 109.4L104.188 114.553C105.501 111.238 107.2 108.741 109.19 106.81L99.4391 96.764L89.6884 86.7179C84.6058 91.651 80.7937 97.5782 78.1538 104.247L91.1711 109.4ZM99.4391 96.764L109.194 106.806C111.38 104.682 114.025 102.99 117.303 101.761L112.387 88.652L107.471 75.5434C100.765 78.0581 94.7782 81.7735 89.6841 86.7221L99.4391 96.764ZM112.387 88.652L117.303 101.761C120.505 100.56 124.372 99.844 129.079 99.844V85.844V71.844C121.514 71.844 114.253 73.0002 107.471 75.5434L112.387 88.652ZM129.079 85.844V99.844C133.701 99.844 137.484 100.585 140.618 101.825L145.771 88.808L150.924 75.7907C144.074 73.0794 136.73 71.844 129.079 71.844V85.844ZM145.771 88.808L140.855 101.917C144.102 103.134 146.633 104.789 148.664 106.819L158.563 96.92L168.463 87.0205C163.421 81.9792 157.424 78.2259 150.687 75.6994L145.771 88.808ZM158.563 96.92L148.959 107.106C150.999 109.03 152.693 111.482 153.97 114.709L166.987 109.556L180.004 104.403C177.33 97.6457 173.407 91.6744 168.167 86.7337L158.563 96.92ZM166.987 109.556L153.97 114.709C155.221 117.87 155.951 121.607 155.951 126.092H169.951H183.951C183.951 118.513 182.705 111.226 180.004 104.403L166.987 109.556ZM115.351 126.092H101.351C101.351 133.911 102.779 142.054 107.454 148.761L118.939 140.756L130.425 132.751C130.315 132.594 129.351 130.961 129.351 126.092H115.351ZM118.939 140.756L107.739 149.156C113.03 156.21 120.718 159.748 129.235 159.748V145.748V131.748C129.033 131.748 128.984 131.729 129.056 131.744C129.133 131.761 129.291 131.805 129.493 131.903C129.696 132.001 129.872 132.119 130.004 132.231C130.133 132.34 130.172 132.4 130.139 132.356L118.939 140.756ZM129.235 145.748V159.748C137.955 159.748 145.806 155.959 150.868 148.366L139.219 140.6L127.57 132.834C127.57 132.835 127.591 132.804 127.637 132.749C127.684 132.693 127.754 132.618 127.848 132.532C128.046 132.351 128.299 132.168 128.591 132.018C129.217 131.695 129.559 131.748 129.235 131.748V145.748ZM139.219 140.6L150.705 148.605C155.357 141.929 156.807 133.865 156.807 126.092H142.807H128.807C128.807 130.799 127.865 132.407 127.734 132.595L139.219 140.6ZM142.807 126.092H156.807C156.807 118.361 155.374 110.228 150.587 103.569L139.219 111.74L127.851 119.911C127.849 119.908 128.807 121.343 128.807 126.092H142.807ZM139.219 111.74L150.705 103.735C145.561 96.3541 137.786 92.592 129.079 92.592V106.592V120.592C129.397 120.592 129.106 120.643 128.552 120.362C128.298 120.233 128.083 120.08 127.921 119.936C127.764 119.796 127.71 119.711 127.734 119.745L139.219 111.74ZM129.079 106.592V92.592C120.373 92.592 112.598 96.3541 107.454 103.735L118.939 111.74L130.425 119.745C130.449 119.711 130.394 119.796 130.237 119.936C130.075 120.08 129.86 120.233 129.606 120.362C129.052 120.643 128.761 120.592 129.079 120.592V106.592ZM118.939 111.74L107.571 103.569C102.785 110.228 101.351 118.361 101.351 126.092H115.351H129.351C129.351 121.343 130.31 119.908 130.307 119.911L118.939 111.74ZM209.409 163.844L213.432 177.254L223.409 174.26V163.844H209.409ZM204.417 164.78L202.526 150.908L202.482 150.914L202.437 150.921L204.417 164.78ZM191.313 164.78L188.88 178.567L188.946 178.579L189.012 178.59L191.313 164.78ZM186.789 162.908L195.189 151.708L195.189 151.708L186.789 162.908ZM183.825 159.164L170.717 164.08L170.908 164.59L171.139 165.084L183.825 159.164ZM184.137 99.884L171.764 93.3336L171.688 93.4774L171.615 93.623L184.137 99.884ZM188.037 95.204L196.866 106.07L196.866 106.07L188.037 95.204ZM194.121 91.616L199.704 104.455L199.83 104.4L199.955 104.343L194.121 91.616ZM202.077 88.652L206.055 102.075L206.055 102.075L202.077 88.652ZM210.813 86.78L212.726 100.649L212.96 100.616L213.192 100.576L210.813 86.78ZM231.717 88.964L223.856 100.549L224 100.646L224.147 100.74L231.717 88.964ZM235.461 102.692L248.842 106.809L248.884 106.674L248.923 106.538L235.461 102.692ZM233.901 106.436V120.436H242.212L246.192 113.14L233.901 106.436ZM227.193 106.748L228.461 120.691L228.461 120.691L227.193 106.748ZM220.485 107.684L217.866 93.9313L217.866 93.9313L220.485 107.684ZM214.245 109.088L217.282 122.755L217.547 122.696L217.808 122.627L214.245 109.088ZM209.409 110.648L203.543 97.9366L195.409 101.69V110.648H209.409ZM209.409 163.844L205.386 150.434C205.526 150.393 205.383 150.443 204.801 150.552C204.263 150.653 203.516 150.773 202.526 150.908L204.417 164.78L206.309 178.652C208.702 178.325 211.281 177.899 213.432 177.254L209.409 163.844ZM204.417 164.78L202.437 150.921C200.961 151.132 199.338 151.248 197.553 151.248V165.248V179.248C200.553 179.248 203.505 179.052 206.397 178.639L204.417 164.78ZM197.553 165.248V151.248C195.885 151.248 194.59 151.133 193.615 150.97L191.313 164.78L189.012 178.59C191.78 179.051 194.645 179.248 197.553 179.248V165.248ZM191.313 164.78L193.746 150.993C193.815 151.005 194.431 151.139 195.189 151.708L186.789 162.908L178.389 174.108C181.644 176.549 185.275 177.931 188.88 178.567L191.313 164.78ZM186.789 162.908L195.189 151.708C195.548 151.977 195.851 152.279 196.089 152.58C196.323 152.876 196.453 153.117 196.512 153.244L183.825 159.164L171.139 165.084C172.737 168.51 175.115 171.652 178.389 174.108L186.789 162.908ZM183.825 159.164L196.934 154.248C197.037 154.522 197.017 154.569 196.976 154.29C196.936 154.015 196.889 153.523 196.889 152.768H182.889H168.889C168.889 156.34 169.298 160.296 170.717 164.08L183.825 159.164ZM182.889 152.768H196.889V105.968H182.889H168.889V152.768H182.889ZM182.889 105.968H196.889C196.889 105.575 196.924 105.425 196.916 105.466C196.906 105.516 196.847 105.77 196.659 106.145L184.137 99.884L171.615 93.623C169.574 97.7054 168.889 102.004 168.889 105.968H182.889ZM184.137 99.884L196.51 106.434C196.517 106.421 196.532 106.396 196.569 106.351C196.609 106.303 196.697 106.207 196.866 106.07L188.037 95.204L179.209 84.3384C176.192 86.79 173.642 89.7871 171.764 93.3336L184.137 99.884ZM188.037 95.204L196.866 106.07C197.356 105.671 198.236 105.093 199.704 104.455L194.121 91.616L188.539 78.777C185.223 80.2189 182.046 82.033 179.209 84.3384L188.037 95.204ZM194.121 91.616L199.955 104.343C201.811 103.492 203.839 102.732 206.055 102.075L202.077 88.652L198.1 75.2288C194.7 76.2364 191.424 77.4519 188.288 78.8891L194.121 91.616ZM202.077 88.652L206.055 102.075C208.161 101.451 210.381 100.972 212.726 100.649L210.813 86.78L208.9 72.9113C205.214 73.4198 201.61 74.1888 198.1 75.2288L202.077 88.652ZM210.813 86.78L213.192 100.576C215.434 100.19 217.654 100 219.861 100V86V72C216.036 72 212.225 72.3301 208.435 72.9836L210.813 86.78ZM219.861 86V100C223.177 100 224.048 100.678 223.856 100.549L231.717 88.964L239.578 77.3793C233.563 73.2976 226.53 72 219.861 72V86ZM231.717 88.964L224.147 100.74C223.82 100.53 223.447 100.227 223.092 99.8211C222.737 99.415 222.479 98.998 222.307 98.6284C221.97 97.9065 222.085 97.6538 222.085 98.324H236.085H250.085C250.085 90.611 247.27 82.3188 239.288 77.1875L231.717 88.964ZM236.085 98.324H222.085C222.085 98.4279 222.073 98.5904 222 98.8459L235.461 102.692L248.923 106.538C249.682 103.882 250.085 101.132 250.085 98.324H236.085ZM235.461 102.692L222.08 98.5748C221.917 99.1058 221.749 99.4782 221.611 99.7321L233.901 106.436L246.192 113.14C247.301 111.106 248.174 108.982 248.842 106.809L235.461 102.692ZM233.901 106.436V92.436C231.273 92.436 228.614 92.5611 225.926 92.8055L227.193 106.748L228.461 120.691C230.349 120.519 232.162 120.436 233.901 120.436V106.436ZM227.193 106.748L225.926 92.8055C223.199 93.0534 220.512 93.4273 217.866 93.9313L220.485 107.684L223.105 121.437C224.827 121.109 226.611 120.859 228.461 120.691L227.193 106.748ZM220.485 107.684L217.866 93.9313C215.392 94.4024 212.996 94.9401 210.682 95.549L214.245 109.088L217.808 122.627C219.447 122.196 221.21 121.798 223.105 121.437L220.485 107.684ZM214.245 109.088L211.208 95.4214C208.625 95.9955 206.017 96.7947 203.543 97.9366L209.409 110.648L215.276 123.359C215.506 123.253 216.122 123.012 217.282 122.755L214.245 109.088ZM209.409 110.648H195.409V163.844H209.409H223.409V110.648H209.409ZM329.893 163.376L333.576 176.883L343.893 174.069V163.376H329.893ZM324.589 164.312L322.778 150.43L324.589 164.312ZM306.805 162.44L298.81 173.933L298.981 174.052L299.157 174.167L306.805 162.44ZM303.217 131.084H317.217V126.798L314.817 123.246L303.217 131.084ZM294.793 118.292L283.025 125.876L283.025 125.876L294.793 118.292ZM285.901 103.94L273.873 111.105L273.873 111.105L285.901 103.94ZM277.789 89.588L265.376 96.0639L265.406 96.1202L265.436 96.1762L277.789 89.588ZM271.705 76.484L260.355 68.2871L255.869 74.498L258.682 81.6243L271.705 76.484ZM277.165 71.336L269.517 59.6094L269.396 59.6879L269.278 59.7688L277.165 71.336ZM295.729 71.492L287.963 83.1407L288.072 83.2133L288.182 83.2838L295.729 71.492ZM303.061 80.852L315.597 74.621L315.59 74.606L315.583 74.591L303.061 80.852ZM316.009 106.904L303.472 113.135L307.333 120.904H316.009V106.904ZM316.945 106.904V120.904H325.983L329.704 112.666L316.945 106.904ZM320.689 98.168L307.795 92.713L307.741 92.8403L307.69 92.9685L320.689 98.168ZM323.965 90.212L336.963 95.4115L336.998 95.3248L337.031 95.2377L323.965 90.212ZM327.241 81.944L340.206 87.2262L340.239 87.1448L340.271 87.0631L327.241 81.944ZM331.141 71.96L324.88 59.438L320.05 61.853L318.092 66.8857L331.141 71.96ZM337.381 69.776L340.483 83.4279L340.483 83.4279L337.381 69.776ZM353.137 71.96L344.447 82.9366L344.697 83.1349L344.956 83.3215L353.137 71.96ZM356.257 85.064L342.825 81.1137L342.825 81.1137L356.257 85.064ZM352.669 93.176L365.042 99.7264L365.081 99.6529L365.119 99.5789L352.669 93.176ZM344.401 107.684L332.36 100.541L332.315 100.617L332.271 100.694L344.401 107.684ZM329.893 131.708L318 124.322L315.893 127.714V131.708H329.893ZM329.893 163.376L326.209 149.869C326.224 149.865 326.157 149.884 325.984 149.921C325.816 149.957 325.583 150.003 325.276 150.057C324.654 150.167 323.831 150.292 322.778 150.43L324.589 164.312L326.399 178.194C328.917 177.866 331.468 177.458 333.576 176.883L329.893 163.376ZM324.589 164.312L322.778 150.43C320.954 150.667 319.219 150.78 317.569 150.78V164.78V178.78C320.494 178.78 323.439 178.581 326.399 178.194L324.589 164.312ZM317.569 164.78V150.78C315.894 150.78 314.838 150.639 314.264 150.515C313.68 150.388 313.879 150.34 314.452 150.713L306.805 162.44L299.157 174.167C304.89 177.906 311.709 178.78 317.569 178.78V164.78ZM306.805 162.44L314.799 150.947C315.635 151.528 316.255 152.194 316.682 152.801C317.094 153.386 317.274 153.84 317.334 154.011C317.391 154.176 317.355 154.13 317.308 153.791C317.262 153.456 317.217 152.92 317.217 152.144H303.217H289.217C289.217 158.429 290.49 168.145 298.81 173.933L306.805 162.44ZM303.217 152.144H317.217V131.084H303.217H289.217V152.144H303.217ZM303.217 131.084L314.817 123.246C312.283 119.497 309.532 115.319 306.561 110.708L294.793 118.292L283.025 125.876C286.085 130.625 288.95 134.975 291.616 138.922L303.217 131.084ZM294.793 118.292L306.561 110.708C303.635 106.169 300.758 101.525 297.928 96.7747L285.901 103.94L273.873 111.105C276.867 116.131 279.918 121.055 283.025 125.876L294.793 118.292ZM285.901 103.94L297.928 96.7747C295.121 92.0629 292.526 87.4714 290.141 82.9998L277.789 89.588L265.436 96.1762C268.043 101.065 270.856 106.041 273.873 111.105L285.901 103.94ZM277.789 89.588L290.201 83.1121C287.874 78.6526 286.067 74.738 284.727 71.3437L271.705 76.484L258.682 81.6243C260.463 86.134 262.711 90.9554 265.376 96.0639L277.789 89.588ZM271.705 76.484L283.054 84.6809C283.288 84.3573 283.844 83.726 285.051 82.9032L277.165 71.336L269.278 59.7688C265.909 62.066 262.825 64.8667 260.355 68.2871L271.705 76.484ZM277.165 71.336L284.812 83.0625C284.702 83.1342 284.657 83.1331 284.765 83.1043C284.889 83.0709 285.242 82.996 285.901 82.996V68.996V54.996C280.307 54.996 274.607 56.2894 269.517 59.6094L277.165 71.336ZM285.901 68.996V82.996C288.142 82.996 288.446 83.463 287.963 83.1407L295.729 71.492L303.494 59.8433C298.019 56.1929 291.771 54.996 285.901 54.996V68.996ZM295.729 71.492L288.182 83.2838C287.838 83.0637 287.978 83.0595 288.49 83.7133C288.995 84.3578 289.7 85.4357 290.539 87.113L303.061 80.852L315.583 74.591C312.827 69.0799 308.974 63.3476 303.275 59.7002L295.729 71.492ZM303.061 80.852L290.524 87.0829L303.472 113.135L316.009 106.904L328.545 100.673L315.597 74.621L303.061 80.852ZM316.009 106.904V120.904H316.945V106.904V92.904H316.009V106.904ZM316.945 106.904L329.704 112.666C331.223 109.302 332.555 106.198 333.687 103.367L320.689 98.168L307.69 92.9685C306.742 95.3377 305.578 98.0578 304.185 101.142L316.945 106.904ZM320.689 98.168L333.582 103.623C334.76 100.838 335.887 98.101 336.963 95.4115L323.965 90.212L310.966 85.0125C309.962 87.523 308.905 90.0898 307.795 92.713L320.689 98.168ZM323.965 90.212L337.031 95.2377C338.037 92.6234 339.095 89.9529 340.206 87.2262L327.241 81.944L314.275 76.6618C313.098 79.5511 311.972 82.3926 310.898 85.1863L323.965 90.212ZM327.241 81.944L340.271 87.0631C341.422 84.1327 342.728 80.7893 344.189 77.0342L331.141 71.96L318.092 66.8857C316.641 70.6187 315.347 73.9313 314.21 76.8249L327.241 81.944ZM331.141 71.96L337.402 84.482C338.157 84.1041 339.16 83.7287 340.483 83.4279L337.381 69.776L334.278 56.1241C331.025 56.8633 327.868 57.9439 324.88 59.438L331.141 71.96ZM337.381 69.776L340.483 83.4279C341.881 83.1103 343.02 82.996 343.933 82.996V68.996V54.996C340.686 54.996 337.456 55.4017 334.278 56.1241L337.381 69.776ZM343.933 68.996V82.996C344.481 82.996 344.691 83.0692 344.672 83.063C344.666 83.0611 344.629 83.0482 344.575 83.0194C344.521 82.9904 344.476 82.9596 344.447 82.9366L353.137 71.96L361.826 60.9834C356.509 56.7734 350.252 54.996 343.933 54.996V68.996ZM353.137 71.96L344.956 83.3215C344.316 82.8607 343.697 82.1402 343.316 81.3022C342.975 80.5515 343.037 80.1754 343.037 80.54H357.037H371.037C371.037 73.2144 368.33 65.6481 361.317 60.5985L353.137 71.96ZM357.037 80.54H343.037C343.037 80.2122 343.069 80.0913 343.045 80.2283C343.023 80.3578 342.963 80.6457 342.825 81.1137L356.257 85.064L369.688 89.0143C370.423 86.513 371.037 83.5974 371.037 80.54H357.037ZM356.257 85.064L342.825 81.1137C342.827 81.1082 342.787 81.2438 342.669 81.55C342.555 81.8475 342.391 82.2453 342.166 82.7549C341.711 83.7828 341.073 85.1115 340.219 86.7731L352.669 93.176L365.119 99.5789C367.028 95.8661 368.765 92.1523 369.688 89.0143L356.257 85.064ZM352.669 93.176L340.296 86.6256C338.581 89.8646 335.958 94.4748 332.36 100.541L344.401 107.684L356.441 114.827C360.123 108.621 363.012 103.559 365.042 99.7264L352.669 93.176ZM344.401 107.684L332.271 100.694C328.844 106.64 324.099 114.501 318 124.322L329.893 131.708L341.786 139.094C347.958 129.155 352.885 121 356.531 114.674L344.401 107.684ZM329.893 131.708H315.893V163.376H329.893H343.893V131.708H329.893ZM415.259 110.336L424.409 120.932L424.427 120.916L424.445 120.9L415.259 110.336ZM415.103 91.928L405.663 102.267L405.897 102.48L406.14 102.683L415.103 91.928ZM400.283 88.808V102.808H400.918L401.55 102.751L400.283 88.808ZM397.007 89.12L394.502 75.3458L383.007 77.4359V89.12H397.007ZM397.007 113.3H383.007V127.3H397.007V113.3ZM397.163 163.376L400.846 176.883L411.163 174.069V163.376H397.163ZM391.703 164.312L389.966 150.42L389.929 150.425L389.892 150.43L391.703 164.312ZM378.131 164.156L381.168 150.489L380.867 150.423L380.564 150.369L378.131 164.156ZM373.607 162.284L365.207 173.484L365.207 173.484L373.607 162.284ZM370.799 158.384L357.69 163.3L357.69 163.3L370.799 158.384ZM371.579 73.364L381.478 83.2635L381.478 83.2635L371.579 73.364ZM376.571 70.4L381.196 83.614L381.213 83.608L381.23 83.6019L376.571 70.4ZM388.583 67.748L390.2 81.6543L390.337 81.6383L390.474 81.6196L388.583 67.748ZM444.119 114.86L431.12 109.661L431.085 109.747L431.052 109.834L444.119 114.86ZM436.943 125.468L446.495 135.703L446.501 135.697L446.507 135.692L436.943 125.468ZM424.931 132.332L429.271 145.642L429.357 145.614L429.442 145.585L424.931 132.332ZM397.163 134.672V120.672H383.163V134.672H397.163ZM405.275 113.3V127.3C411.535 127.3 418.653 125.903 424.409 120.932L415.259 110.336L406.108 99.7405C406.377 99.5083 406.625 99.3505 406.813 99.2514C406.996 99.1546 407.093 99.1288 407.062 99.1379C406.975 99.1639 406.441 99.3 405.275 99.3V113.3ZM415.259 110.336L424.445 120.9C430.782 115.39 432.847 107.843 432.847 100.976H418.847H404.847C404.847 101.747 404.732 101.803 404.877 101.425C404.953 101.227 405.087 100.946 405.305 100.63C405.525 100.311 405.788 100.019 406.072 99.7715L415.259 110.336ZM418.847 100.976H432.847C432.847 93.8565 430.441 86.4861 424.065 81.1729L415.103 91.928L406.14 102.683C405.918 102.498 405.679 102.253 405.458 101.953C405.237 101.652 405.08 101.357 404.974 101.103C404.765 100.596 404.847 100.459 404.847 100.976H418.847ZM415.103 91.928L424.542 81.5892C418.625 76.1859 411.13 74.652 404.495 74.652V88.652V102.652C405.786 102.652 406.395 102.807 406.526 102.848C406.603 102.872 406.194 102.752 405.663 102.267L415.103 91.928ZM404.495 88.652V74.652C402.577 74.652 400.721 74.7104 399.015 74.8655L400.283 88.808L401.55 102.751C402.132 102.698 403.084 102.652 404.495 102.652V88.652ZM400.283 88.808V74.808C398.311 74.808 396.377 75.0049 394.502 75.3458L397.007 89.12L399.511 102.894C399.924 102.819 400.174 102.808 400.283 102.808V88.808ZM397.007 89.12H383.007V113.3H397.007H411.007V89.12H397.007ZM397.007 113.3V127.3H405.275V113.3V99.3H397.007V113.3ZM397.163 163.376L393.479 149.869C393.51 149.861 393.255 149.929 392.574 150.045C391.932 150.155 391.073 150.282 389.966 150.42L391.703 164.312L393.439 178.204C396.033 177.88 398.685 177.472 400.846 176.883L397.163 163.376ZM391.703 164.312L389.892 150.43C388.095 150.664 386.308 150.78 384.527 150.78V164.78V178.78C387.529 178.78 390.526 178.584 393.513 178.194L391.703 164.312ZM384.527 164.78V150.78C382.917 150.78 381.833 150.637 381.168 150.489L378.131 164.156L375.094 177.823C378.172 178.507 381.353 178.78 384.527 178.78V164.78ZM378.131 164.156L380.564 150.369C380.633 150.381 381.248 150.515 382.007 151.084L373.607 162.284L365.207 173.484C368.461 175.925 372.093 177.307 375.698 177.943L378.131 164.156ZM373.607 162.284L382.007 151.084C382.547 151.49 382.992 151.957 383.33 152.427C383.661 152.886 383.831 153.265 383.907 153.468L370.799 158.384L357.69 163.3C359.118 167.107 361.536 170.731 365.207 173.484L373.607 162.284ZM370.799 158.384L383.907 153.468C384.024 153.78 384.001 153.837 383.956 153.518C383.912 153.209 383.863 152.663 383.863 151.832H369.863H355.863C355.863 155.43 356.253 159.467 357.69 163.3L370.799 158.384ZM369.863 151.832H383.863V78.356H369.863H355.863V151.832H369.863ZM369.863 78.356H383.863C383.863 78.5486 383.774 80.9679 381.478 83.2635L371.579 73.364L361.679 63.4645C357.096 68.0481 355.863 73.7954 355.863 78.356H369.863ZM371.579 73.364L381.478 83.2635C380.917 83.825 380.619 83.8157 381.196 83.614L376.571 70.4L371.946 57.186C368.362 58.4403 364.737 60.4069 361.679 63.4645L371.579 73.364ZM376.571 70.4L381.23 83.6019C383.608 82.7625 386.565 82.0769 390.2 81.6543L388.583 67.748L386.966 53.8417C381.656 54.4591 376.605 55.5415 371.911 57.1981L376.571 70.4ZM388.583 67.748L390.474 81.6196C394.429 81.0803 398.373 80.812 402.311 80.812V66.812V52.812C397.096 52.812 391.888 53.1677 386.691 53.8764L388.583 67.748ZM402.311 66.812V80.812C414.916 80.812 422.261 83.5381 426.426 86.9044L435.227 76.016L444.027 65.1276C433.008 56.2219 418.41 52.812 402.311 52.812V66.812ZM435.227 76.016L426.426 86.9044C430.454 90.1591 432.615 94.332 432.615 100.976H446.615H460.615C460.615 86.612 455.184 74.1449 444.027 65.1276L435.227 76.016ZM446.615 100.976H432.615C432.615 104.534 432.038 107.366 431.12 109.661L444.119 114.86L457.117 120.059C459.527 114.034 460.615 107.61 460.615 100.976H446.615ZM444.119 114.86L431.052 109.834C430.264 111.883 429.083 113.65 427.378 115.244L436.943 125.468L446.507 135.692C451.251 131.254 454.853 125.949 457.185 119.886L444.119 114.86ZM436.943 125.468L427.39 115.233C425.989 116.541 423.818 117.922 420.419 119.079L424.931 132.332L429.442 145.585C435.819 143.414 441.656 140.219 446.495 135.703L436.943 125.468ZM424.931 132.332L420.59 119.022C417.518 120.024 413.475 120.672 408.239 120.672V134.672V148.672C415.69 148.672 422.775 147.76 429.271 145.642L424.931 132.332ZM408.239 134.672V120.672H397.163V134.672V148.672H408.239V134.672ZM397.163 134.672H383.163V163.376H397.163H411.163V134.672H397.163ZM486.577 126.404L482.06 139.655L482.105 139.671L482.15 139.686L486.577 126.404ZM474.097 121.724L468.412 134.517L468.561 134.584L468.713 134.647L474.097 121.724ZM458.029 107.684L445.27 113.446L445.384 113.698L445.507 113.945L458.029 107.684ZM465.985 74.768L457.425 63.69L457.384 63.7217L457.343 63.7537L465.985 74.768ZM507.169 67.748L509.41 53.9285L509.41 53.9285L507.169 67.748ZM516.997 70.712L510.736 83.234L511.021 83.3762L511.312 83.5054L516.997 70.712ZM523.549 75.704L512.349 84.104L512.454 84.2428L512.561 84.379L523.549 75.704ZM524.017 89.744L535.666 97.5098L535.762 97.366L535.854 97.2199L524.017 89.744ZM519.493 94.58L511.977 106.391L520.229 111.642L527.998 105.701L519.493 94.58ZM510.289 90.836L506.3 104.256L506.468 104.305L506.637 104.351L510.289 90.836ZM487.357 91.148L494.303 103.303L494.517 103.181L494.726 103.052L487.357 91.148ZM486.109 99.884L477.574 110.981L477.852 111.195L478.141 111.395L486.109 99.884ZM492.193 102.536L496.469 89.205L496.39 89.1796L496.311 89.1551L492.193 102.536ZM500.461 105.188L496.185 118.519L496.195 118.522L496.205 118.525L500.461 105.188ZM522.925 117.2L513.337 127.401L513.442 127.499L513.549 127.596L522.925 117.2ZM520.429 158.384L529.013 169.444L529.064 169.404L529.115 169.364L520.429 158.384ZM476.281 165.248L479.027 151.52L478.891 151.493L478.755 151.468L476.281 165.248ZM465.517 161.972L459.086 174.407L459.339 174.538L459.597 174.659L465.517 161.972ZM458.341 156.356L447.019 164.59L447.232 164.883L447.46 165.165L458.341 156.356ZM458.497 140.912L469.165 149.979L469.273 149.851L469.379 149.721L458.497 140.912ZM464.269 135.92L472.919 124.912L465.637 119.19L457.523 123.653L464.269 135.92ZM474.877 141.848L469.678 154.847L469.733 154.869L469.788 154.89L474.877 141.848ZM499.525 142.004L507.925 153.204L507.925 153.204L499.525 142.004ZM500.149 131.864L492.218 143.401L492.47 143.574L492.729 143.736L500.149 131.864ZM493.129 128.588L497.693 115.353L497.625 115.329L497.557 115.306L493.129 128.588ZM486.577 126.404L491.095 113.153C486.758 111.674 482.893 110.222 479.482 108.801L474.097 121.724L468.713 134.647C472.79 136.346 477.245 138.014 482.06 139.655L486.577 126.404ZM474.097 121.724L479.783 108.931C477.067 107.723 475.015 106.417 473.469 105.109L464.425 115.796L455.382 126.483C459.244 129.751 463.64 132.397 468.412 134.517L474.097 121.724ZM464.425 115.796L473.469 105.109C472.189 104.026 471.25 102.821 470.551 101.423L458.029 107.684L445.507 113.945C447.929 118.787 451.254 122.99 455.382 126.483L464.425 115.796ZM458.029 107.684L470.789 101.922C470.353 100.957 469.845 99.1327 469.845 95.984H455.845H441.845C441.845 101.987 442.794 107.963 445.27 113.446L458.029 107.684ZM455.845 95.984H469.845C469.845 91.299 471.362 88.3445 474.627 85.7823L465.985 74.768L457.343 63.7537C447.089 71.7995 441.845 82.989 441.845 95.984H455.845ZM465.985 74.768L474.546 85.846C478.123 83.0816 484.262 80.812 494.689 80.812V66.812V52.812C480.573 52.812 467.576 55.8464 457.425 63.69L465.985 74.768ZM494.689 66.812V80.812C498.518 80.812 501.92 81.0796 504.928 81.5675L507.169 67.748L509.41 53.9285C504.723 53.1684 499.805 52.812 494.689 52.812V66.812ZM507.169 67.748L504.928 81.5675C507.761 82.0268 509.604 82.6679 510.736 83.234L516.997 70.712L523.258 58.19C518.983 56.0521 514.274 54.7172 509.41 53.9285L507.169 67.748ZM516.997 70.712L511.312 83.5054C511.838 83.7391 512.126 83.9321 512.257 84.032C512.379 84.1254 512.386 84.1532 512.349 84.104L523.549 75.704L534.749 67.304C531.516 62.9925 527.276 59.9598 522.683 57.9186L516.997 70.712ZM523.549 75.704L512.561 84.379C512.358 84.1213 512.156 83.7682 512.023 83.3682C511.961 83.1822 511.926 83.0232 511.908 82.9038C511.889 82.7858 511.889 82.7221 511.889 82.724H525.889H539.889C539.889 77.1212 538.198 71.6646 534.538 67.029L523.549 75.704ZM525.889 82.724H511.889C511.889 82.9977 511.858 83.0341 511.894 82.8997C511.912 82.8339 511.942 82.7386 511.993 82.6229C512.043 82.5067 512.106 82.3862 512.181 82.2681L524.017 89.744L535.854 97.2199C538.726 92.6731 539.889 87.6503 539.889 82.724H525.889ZM524.017 89.744L512.369 81.9782C511.967 82.5803 511.518 83.0547 510.989 83.459L519.493 94.58L527.998 105.701C531.005 103.401 533.572 100.652 535.666 97.5098L524.017 89.744ZM519.493 94.58L527.01 82.7687C523.109 80.2866 518.578 78.5738 513.942 77.3209L510.289 90.836L506.637 104.351C509.697 105.178 511.302 105.961 511.977 106.391L519.493 94.58ZM510.289 90.836L514.279 77.4165C508.97 75.8381 503.395 75.12 497.653 75.12V89.12V103.12C501.064 103.12 503.913 103.546 506.3 104.256L510.289 90.836ZM497.653 89.12V75.12C492.206 75.12 485.551 75.801 479.989 79.2443L487.357 91.148L494.726 103.052C493.972 103.519 493.653 103.486 494.275 103.363C494.859 103.248 495.938 103.12 497.653 103.12V89.12ZM487.357 91.148L480.412 78.9926C475.246 81.944 470.081 87.5734 470.081 95.984H484.081H498.081C498.081 97.7509 497.54 99.5968 496.491 101.145C495.541 102.548 494.545 103.165 494.303 103.303L487.357 91.148ZM484.081 95.984H470.081C470.081 102.337 473.147 107.575 477.574 110.981L486.109 99.884L494.645 88.7873C495.323 89.3085 496.264 90.2356 497.01 91.6701C497.776 93.1435 498.081 94.6649 498.081 95.984H484.081ZM486.109 99.884L478.141 111.395C481.225 113.53 484.837 114.92 488.076 115.917L492.193 102.536L496.311 89.1551C495.33 88.8534 494.66 88.5989 494.239 88.4153C493.792 88.2206 493.802 88.1823 494.078 88.3733L486.109 99.884ZM492.193 102.536L487.917 115.867L496.185 118.519L500.461 105.188L504.737 91.857L496.469 89.205L492.193 102.536ZM500.461 105.188L496.205 118.525C504.8 121.268 510.174 124.428 513.337 127.401L522.925 117.2L532.514 106.999C525.277 100.196 515.675 95.3477 504.718 91.8508L500.461 105.188ZM522.925 117.2L513.549 127.596C515.416 129.28 516.881 131.782 516.881 136.856H530.881H544.881C544.881 125.29 541.043 114.688 532.302 106.804L522.925 117.2ZM530.881 136.856H516.881C516.881 141.391 515.375 144.532 511.744 147.404L520.429 158.384L529.115 169.364C539.42 161.212 544.881 150.001 544.881 136.856H530.881ZM520.429 158.384L511.846 147.324C508.336 150.048 501.676 152.496 489.697 152.496V166.496V180.496C504.759 180.496 518.587 177.536 529.013 169.444L520.429 158.384ZM489.697 166.496V152.496C485.721 152.496 482.177 152.15 479.027 151.52L476.281 165.248L473.536 178.976C478.706 180.01 484.106 180.496 489.697 180.496V166.496ZM476.281 165.248L478.755 151.468C475.664 150.914 473.271 150.141 471.438 149.285L465.517 161.972L459.597 174.659C464.004 176.715 468.787 178.126 473.808 179.028L476.281 165.248ZM465.517 161.972L471.949 149.537C470.301 148.684 469.548 147.949 469.223 147.547L458.341 156.356L447.46 165.165C450.671 169.131 454.702 172.14 459.086 174.407L465.517 161.972ZM458.341 156.356L469.664 148.122C469.664 148.121 469.67 148.13 469.68 148.146C469.69 148.163 469.703 148.185 469.718 148.215C469.749 148.275 469.779 148.347 469.803 148.423C469.828 148.499 469.84 148.558 469.845 148.592C469.85 148.625 469.845 148.616 469.845 148.556H455.845H441.845C441.845 154.334 443.561 159.836 447.019 164.59L458.341 156.356ZM455.845 148.556H469.845C469.845 148.427 469.862 148.606 469.735 148.972C469.602 149.357 469.39 149.714 469.165 149.979L458.497 140.912L447.83 131.845C443.681 136.727 441.845 142.591 441.845 148.556H455.845ZM458.497 140.912L469.379 149.721C470.212 148.692 470.789 148.312 471.016 148.187L464.269 135.92L457.523 123.653C453.59 125.816 450.319 128.764 447.616 132.103L458.497 140.912ZM464.269 135.92L455.62 146.928C459.774 150.192 464.529 152.787 469.678 154.847L474.877 141.848L480.077 128.849C476.906 127.581 474.589 126.224 472.919 124.912L464.269 135.92ZM474.877 141.848L469.788 154.89C475.815 157.242 482.186 158.344 488.761 158.344V144.344V130.344C485.352 130.344 482.468 129.782 479.967 128.806L474.877 141.848ZM488.761 144.344V158.344C494.43 158.344 502.004 157.645 507.925 153.204L499.525 142.004L491.125 130.804C491.698 130.375 492.149 130.166 492.34 130.087C492.53 130.009 492.541 130.026 492.3 130.079C491.778 130.192 490.664 130.344 488.761 130.344V144.344ZM499.525 142.004L507.925 153.204C512.553 149.733 516.645 144.124 516.645 136.544H502.645H488.645C488.645 135.128 489.031 133.711 489.71 132.523C490.337 131.426 490.993 130.903 491.125 130.804L499.525 142.004ZM502.645 136.544H516.645C516.645 129.986 513.615 123.77 507.569 119.992L500.149 131.864L492.729 143.736C491.717 143.103 490.529 142.016 489.669 140.402C488.827 138.824 488.645 137.396 488.645 136.544H502.645ZM500.149 131.864L508.081 120.327C504.955 118.179 501.298 116.596 497.693 115.353L493.129 128.588L488.566 141.823C490.993 142.66 492.016 143.261 492.218 143.401L500.149 131.864ZM493.129 128.588L497.557 115.306L491.005 113.122L486.577 126.404L482.15 139.686L488.702 141.87L493.129 128.588Z" fill="white" mask="url(#path-1-outside-1_1302_3)"/>
</svg>
