<svg width="545" height="129" viewBox="0 0 545 129" fill="none" xmlns="http://www.w3.org/2000/svg">
<mask id="path-1-outside-1_1302_5" maskUnits="userSpaceOnUse" x="0" y="0" width="545" height="129" fill="black">
<rect fill="white" width="545" height="129"/>
<path d="M80.596 17.464C81.324 18.608 81.948 20.168 82.468 22.144C83.092 24.016 83.404 25.992 83.404 28.072C83.404 32.128 82.52 35.04 80.752 36.808C79.088 38.472 76.8 39.304 73.888 39.304H41.128V56.932H75.292C76.124 58.076 76.8 59.584 77.32 61.456C77.944 63.328 78.256 65.304 78.256 67.384C78.256 71.336 77.372 74.196 75.604 75.964C73.94 77.628 71.652 78.46 68.74 78.46H41.44V111.376C40.296 111.688 38.476 112 35.98 112.312C33.588 112.624 31.196 112.78 28.804 112.78C26.412 112.78 24.28 112.572 22.408 112.156C20.64 111.844 19.132 111.22 17.884 110.284C16.636 109.348 15.7 108.048 15.076 106.384C14.452 104.72 14.14 102.536 14.14 99.832V31.972C14.14 27.5 15.44 23.964 18.04 21.364C20.64 18.764 24.176 17.464 28.648 17.464H80.596Z"/>
<path d="M169.951 74.092C169.951 80.54 168.963 86.312 166.987 91.408C165.011 96.4 162.203 100.612 158.563 104.044C155.027 107.476 150.763 110.076 145.771 111.844C140.779 113.612 135.215 114.496 129.079 114.496C122.943 114.496 117.379 113.56 112.387 111.688C107.395 109.816 103.079 107.164 99.4391 103.732C95.9031 100.196 93.1471 95.932 91.1711 90.94C89.1951 85.948 88.2071 80.332 88.2071 74.092C88.2071 67.956 89.1951 62.392 91.1711 57.4C93.1471 52.408 95.9031 48.196 99.4391 44.764C103.079 41.228 107.395 38.524 112.387 36.652C117.379 34.78 122.943 33.844 129.079 33.844C135.215 33.844 140.779 34.832 145.771 36.808C150.763 38.68 155.027 41.384 158.563 44.92C162.203 48.352 165.011 52.564 166.987 57.556C168.963 62.548 169.951 68.06 169.951 74.092ZM115.351 74.092C115.351 80.436 116.547 85.324 118.939 88.756C121.435 92.084 124.867 93.748 129.235 93.748C133.603 93.748 136.931 92.032 139.219 88.6C141.611 85.168 142.807 80.332 142.807 74.092C142.807 67.852 141.611 63.068 139.219 59.74C136.827 56.308 133.447 54.592 129.079 54.592C124.711 54.592 121.331 56.308 118.939 59.74C116.547 63.068 115.351 67.852 115.351 74.092Z"/>
<path d="M209.409 111.844C208.369 112.156 206.705 112.468 204.417 112.78C202.233 113.092 199.945 113.248 197.553 113.248C195.265 113.248 193.185 113.092 191.313 112.78C189.545 112.468 188.037 111.844 186.789 110.908C185.541 109.972 184.553 108.724 183.825 107.164C183.201 105.5 182.889 103.368 182.889 100.768V53.968C182.889 51.576 183.305 49.548 184.137 47.884C185.073 46.116 186.373 44.556 188.037 43.204C189.701 41.852 191.729 40.656 194.121 39.616C196.617 38.472 199.269 37.484 202.077 36.652C204.885 35.82 207.797 35.196 210.813 34.78C213.829 34.26 216.845 34 219.861 34C224.853 34 228.805 34.988 231.717 36.964C234.629 38.836 236.085 41.956 236.085 46.324C236.085 47.78 235.877 49.236 235.461 50.692C235.045 52.044 234.525 53.292 233.901 54.436C231.717 54.436 229.481 54.54 227.193 54.748C224.905 54.956 222.669 55.268 220.485 55.684C218.301 56.1 216.221 56.568 214.245 57.088C212.373 57.504 210.761 58.024 209.409 58.648V111.844Z"/>
<path d="M329.893 111.376C328.749 111.688 326.981 112 324.589 112.312C322.197 112.624 319.857 112.78 317.569 112.78C312.785 112.78 309.197 112 306.805 110.44C304.413 108.776 303.217 105.344 303.217 100.144V79.084C300.617 75.236 297.809 70.972 294.793 66.292C291.777 61.612 288.813 56.828 285.901 51.94C282.989 47.052 280.285 42.268 277.789 37.588C275.293 32.804 273.265 28.436 271.705 24.484C273.057 22.612 274.877 20.896 277.165 19.336C279.557 17.776 282.469 16.996 285.901 16.996C289.957 16.996 293.233 17.828 295.729 19.492C298.329 21.156 300.773 24.276 303.061 28.852L316.009 54.904H316.945C318.401 51.68 319.649 48.768 320.689 46.168C321.833 43.464 322.925 40.812 323.965 38.212C325.005 35.508 326.097 32.752 327.241 29.944C328.385 27.032 329.685 23.704 331.141 19.96C333.013 19.024 335.093 18.296 337.381 17.776C339.669 17.256 341.853 16.996 343.933 16.996C347.573 16.996 350.641 17.984 353.137 19.96C355.737 21.832 357.037 24.692 357.037 28.54C357.037 29.788 356.777 31.296 356.257 33.064C355.737 34.832 354.541 37.536 352.669 41.176C350.797 44.712 348.041 49.548 344.401 55.684C340.865 61.82 336.029 69.828 329.893 79.708V111.376Z"/>
<path d="M405.275 61.3C409.643 61.3 412.971 60.312 415.259 58.336C417.651 56.256 418.847 53.136 418.847 48.976C418.847 45.024 417.599 42.008 415.103 39.928C412.711 37.744 409.175 36.652 404.495 36.652C402.831 36.652 401.427 36.704 400.283 36.808C399.243 36.808 398.151 36.912 397.007 37.12V61.3H405.275ZM397.163 111.376C396.019 111.688 394.199 112 391.703 112.312C389.311 112.624 386.919 112.78 384.527 112.78C382.135 112.78 380.003 112.572 378.131 112.156C376.363 111.844 374.855 111.22 373.607 110.284C372.359 109.348 371.423 108.048 370.799 106.384C370.175 104.72 369.863 102.536 369.863 99.832V26.356C369.863 24.172 370.435 22.508 371.579 21.364C372.827 20.116 374.491 19.128 376.571 18.4C380.107 17.152 384.111 16.268 388.583 15.748C393.159 15.124 397.735 14.812 402.311 14.812C416.663 14.812 427.635 17.88 435.227 24.016C442.819 30.152 446.615 38.472 446.615 48.976C446.615 54.072 445.783 58.7 444.119 62.86C442.559 66.916 440.167 70.452 436.943 73.468C433.823 76.38 429.819 78.668 424.931 80.332C420.147 81.892 414.583 82.672 408.239 82.672H397.163V111.376Z"/>
<path d="M486.577 74.404C482.001 72.844 477.841 71.284 474.097 69.724C470.353 68.06 467.129 66.084 464.425 63.796C461.721 61.508 459.589 58.804 458.029 55.684C456.573 52.46 455.845 48.56 455.845 43.984C455.845 35.144 459.225 28.072 465.985 22.768C472.849 17.464 482.417 14.812 494.689 14.812C499.161 14.812 503.321 15.124 507.169 15.748C511.017 16.372 514.293 17.36 516.997 18.712C519.805 19.96 521.989 21.624 523.549 23.704C525.109 25.68 525.889 28.02 525.889 30.724C525.889 33.428 525.265 35.768 524.017 37.744C522.769 39.616 521.261 41.228 519.493 42.58C517.205 41.124 514.137 39.876 510.289 38.836C506.441 37.692 502.229 37.12 497.653 37.12C492.973 37.12 489.541 37.796 487.357 39.148C485.173 40.396 484.081 42.008 484.081 43.984C484.081 45.544 484.757 46.844 486.109 47.884C487.461 48.82 489.489 49.704 492.193 50.536L500.461 53.188C510.237 56.308 517.725 60.312 522.925 65.2C528.229 69.984 530.881 76.536 530.881 84.856C530.881 93.696 527.397 100.872 520.429 106.384C513.461 111.792 503.217 114.496 489.697 114.496C484.913 114.496 480.441 114.08 476.281 113.248C472.225 112.52 468.637 111.428 465.517 109.972C462.501 108.412 460.109 106.54 458.341 104.356C456.677 102.068 455.845 99.468 455.845 96.556C455.845 93.54 456.729 90.992 458.497 88.912C460.265 86.728 462.189 85.064 464.269 83.92C467.181 86.208 470.717 88.184 474.877 89.848C479.141 91.512 483.769 92.344 488.761 92.344C493.857 92.344 497.445 91.564 499.525 90.004C501.605 88.444 502.645 86.624 502.645 84.544C502.645 82.464 501.813 80.904 500.149 79.864C498.485 78.72 496.145 77.628 493.129 76.588L486.577 74.404Z"/>
</mask>
<path d="M80.596 17.464C81.324 18.608 81.948 20.168 82.468 22.144C83.092 24.016 83.404 25.992 83.404 28.072C83.404 32.128 82.52 35.04 80.752 36.808C79.088 38.472 76.8 39.304 73.888 39.304H41.128V56.932H75.292C76.124 58.076 76.8 59.584 77.32 61.456C77.944 63.328 78.256 65.304 78.256 67.384C78.256 71.336 77.372 74.196 75.604 75.964C73.94 77.628 71.652 78.46 68.74 78.46H41.44V111.376C40.296 111.688 38.476 112 35.98 112.312C33.588 112.624 31.196 112.78 28.804 112.78C26.412 112.78 24.28 112.572 22.408 112.156C20.64 111.844 19.132 111.22 17.884 110.284C16.636 109.348 15.7 108.048 15.076 106.384C14.452 104.72 14.14 102.536 14.14 99.832V31.972C14.14 27.5 15.44 23.964 18.04 21.364C20.64 18.764 24.176 17.464 28.648 17.464H80.596Z" fill="#FF0000"/>
<path d="M169.951 74.092C169.951 80.54 168.963 86.312 166.987 91.408C165.011 96.4 162.203 100.612 158.563 104.044C155.027 107.476 150.763 110.076 145.771 111.844C140.779 113.612 135.215 114.496 129.079 114.496C122.943 114.496 117.379 113.56 112.387 111.688C107.395 109.816 103.079 107.164 99.4391 103.732C95.9031 100.196 93.1471 95.932 91.1711 90.94C89.1951 85.948 88.2071 80.332 88.2071 74.092C88.2071 67.956 89.1951 62.392 91.1711 57.4C93.1471 52.408 95.9031 48.196 99.4391 44.764C103.079 41.228 107.395 38.524 112.387 36.652C117.379 34.78 122.943 33.844 129.079 33.844C135.215 33.844 140.779 34.832 145.771 36.808C150.763 38.68 155.027 41.384 158.563 44.92C162.203 48.352 165.011 52.564 166.987 57.556C168.963 62.548 169.951 68.06 169.951 74.092ZM115.351 74.092C115.351 80.436 116.547 85.324 118.939 88.756C121.435 92.084 124.867 93.748 129.235 93.748C133.603 93.748 136.931 92.032 139.219 88.6C141.611 85.168 142.807 80.332 142.807 74.092C142.807 67.852 141.611 63.068 139.219 59.74C136.827 56.308 133.447 54.592 129.079 54.592C124.711 54.592 121.331 56.308 118.939 59.74C116.547 63.068 115.351 67.852 115.351 74.092Z" fill="#FFD400"/>
<path d="M209.409 111.844C208.369 112.156 206.705 112.468 204.417 112.78C202.233 113.092 199.945 113.248 197.553 113.248C195.265 113.248 193.185 113.092 191.313 112.78C189.545 112.468 188.037 111.844 186.789 110.908C185.541 109.972 184.553 108.724 183.825 107.164C183.201 105.5 182.889 103.368 182.889 100.768V53.968C182.889 51.576 183.305 49.548 184.137 47.884C185.073 46.116 186.373 44.556 188.037 43.204C189.701 41.852 191.729 40.656 194.121 39.616C196.617 38.472 199.269 37.484 202.077 36.652C204.885 35.82 207.797 35.196 210.813 34.78C213.829 34.26 216.845 34 219.861 34C224.853 34 228.805 34.988 231.717 36.964C234.629 38.836 236.085 41.956 236.085 46.324C236.085 47.78 235.877 49.236 235.461 50.692C235.045 52.044 234.525 53.292 233.901 54.436C231.717 54.436 229.481 54.54 227.193 54.748C224.905 54.956 222.669 55.268 220.485 55.684C218.301 56.1 216.221 56.568 214.245 57.088C212.373 57.504 210.761 58.024 209.409 58.648V111.844Z" fill="#FA3EAE"/>
<path d="M329.893 111.376C328.749 111.688 326.981 112 324.589 112.312C322.197 112.624 319.857 112.78 317.569 112.78C312.785 112.78 309.197 112 306.805 110.44C304.413 108.776 303.217 105.344 303.217 100.144V79.084C300.617 75.236 297.809 70.972 294.793 66.292C291.777 61.612 288.813 56.828 285.901 51.94C282.989 47.052 280.285 42.268 277.789 37.588C275.293 32.804 273.265 28.436 271.705 24.484C273.057 22.612 274.877 20.896 277.165 19.336C279.557 17.776 282.469 16.996 285.901 16.996C289.957 16.996 293.233 17.828 295.729 19.492C298.329 21.156 300.773 24.276 303.061 28.852L316.009 54.904H316.945C318.401 51.68 319.649 48.768 320.689 46.168C321.833 43.464 322.925 40.812 323.965 38.212C325.005 35.508 326.097 32.752 327.241 29.944C328.385 27.032 329.685 23.704 331.141 19.96C333.013 19.024 335.093 18.296 337.381 17.776C339.669 17.256 341.853 16.996 343.933 16.996C347.573 16.996 350.641 17.984 353.137 19.96C355.737 21.832 357.037 24.692 357.037 28.54C357.037 29.788 356.777 31.296 356.257 33.064C355.737 34.832 354.541 37.536 352.669 41.176C350.797 44.712 348.041 49.548 344.401 55.684C340.865 61.82 336.029 69.828 329.893 79.708V111.376Z" fill="#8B00FF"/>
<path d="M405.275 61.3C409.643 61.3 412.971 60.312 415.259 58.336C417.651 56.256 418.847 53.136 418.847 48.976C418.847 45.024 417.599 42.008 415.103 39.928C412.711 37.744 409.175 36.652 404.495 36.652C402.831 36.652 401.427 36.704 400.283 36.808C399.243 36.808 398.151 36.912 397.007 37.12V61.3H405.275ZM397.163 111.376C396.019 111.688 394.199 112 391.703 112.312C389.311 112.624 386.919 112.78 384.527 112.78C382.135 112.78 380.003 112.572 378.131 112.156C376.363 111.844 374.855 111.22 373.607 110.284C372.359 109.348 371.423 108.048 370.799 106.384C370.175 104.72 369.863 102.536 369.863 99.832V26.356C369.863 24.172 370.435 22.508 371.579 21.364C372.827 20.116 374.491 19.128 376.571 18.4C380.107 17.152 384.111 16.268 388.583 15.748C393.159 15.124 397.735 14.812 402.311 14.812C416.663 14.812 427.635 17.88 435.227 24.016C442.819 30.152 446.615 38.472 446.615 48.976C446.615 54.072 445.783 58.7 444.119 62.86C442.559 66.916 440.167 70.452 436.943 73.468C433.823 76.38 429.819 78.668 424.931 80.332C420.147 81.892 414.583 82.672 408.239 82.672H397.163V111.376Z" fill="#66CC00"/>
<path d="M486.577 74.404C482.001 72.844 477.841 71.284 474.097 69.724C470.353 68.06 467.129 66.084 464.425 63.796C461.721 61.508 459.589 58.804 458.029 55.684C456.573 52.46 455.845 48.56 455.845 43.984C455.845 35.144 459.225 28.072 465.985 22.768C472.849 17.464 482.417 14.812 494.689 14.812C499.161 14.812 503.321 15.124 507.169 15.748C511.017 16.372 514.293 17.36 516.997 18.712C519.805 19.96 521.989 21.624 523.549 23.704C525.109 25.68 525.889 28.02 525.889 30.724C525.889 33.428 525.265 35.768 524.017 37.744C522.769 39.616 521.261 41.228 519.493 42.58C517.205 41.124 514.137 39.876 510.289 38.836C506.441 37.692 502.229 37.12 497.653 37.12C492.973 37.12 489.541 37.796 487.357 39.148C485.173 40.396 484.081 42.008 484.081 43.984C484.081 45.544 484.757 46.844 486.109 47.884C487.461 48.82 489.489 49.704 492.193 50.536L500.461 53.188C510.237 56.308 517.725 60.312 522.925 65.2C528.229 69.984 530.881 76.536 530.881 84.856C530.881 93.696 527.397 100.872 520.429 106.384C513.461 111.792 503.217 114.496 489.697 114.496C484.913 114.496 480.441 114.08 476.281 113.248C472.225 112.52 468.637 111.428 465.517 109.972C462.501 108.412 460.109 106.54 458.341 104.356C456.677 102.068 455.845 99.468 455.845 96.556C455.845 93.54 456.729 90.992 458.497 88.912C460.265 86.728 462.189 85.064 464.269 83.92C467.181 86.208 470.717 88.184 474.877 89.848C479.141 91.512 483.769 92.344 488.761 92.344C493.857 92.344 497.445 91.564 499.525 90.004C501.605 88.444 502.645 86.624 502.645 84.544C502.645 82.464 501.813 80.904 500.149 79.864C498.485 78.72 496.145 77.628 493.129 76.588L486.577 74.404Z" fill="#448FF2"/>
<path d="M80.596 17.464L92.4073 9.94773L88.2812 3.464H80.596V17.464ZM82.468 22.144L68.929 25.7069L69.0438 26.1432L69.1864 26.5712L82.468 22.144ZM41.128 39.304V25.304H27.128V39.304H41.128ZM41.128 56.932H27.128V70.932H41.128V56.932ZM75.292 56.932L86.6143 48.6976L82.4211 42.932H75.292V56.932ZM77.32 61.456L63.8308 65.203L63.926 65.5457L64.0384 65.8832L77.32 61.456ZM75.604 75.964L85.5035 85.8635L85.5035 85.8635L75.604 75.964ZM41.44 78.46V64.46H27.44V78.46H41.44ZM41.44 111.376L45.1236 124.883L55.44 122.069V111.376H41.44ZM35.98 112.312L34.2435 98.4201L34.2064 98.4248L34.1693 98.4296L35.98 112.312ZM22.408 112.156L25.445 98.4894L25.1443 98.4226L24.841 98.369L22.408 112.156ZM17.884 110.284L9.484 121.484L9.484 121.484L17.884 110.284ZM15.076 106.384L1.96739 111.3L1.96739 111.3L15.076 106.384ZM80.596 17.464L68.7847 24.9803C68.5868 24.6693 68.5492 24.5361 68.6113 24.6915C68.67 24.8382 68.7853 25.1609 68.929 25.7069L82.468 22.144L96.007 18.5811C95.2857 15.8399 94.1993 12.7639 92.4073 9.94773L80.596 17.464ZM82.468 22.144L69.1864 26.5712C69.3094 26.94 69.404 27.4149 69.404 28.072H83.404H97.404C97.404 24.5691 96.8746 21.092 95.7496 17.7168L82.468 22.144ZM83.404 28.072H69.404C69.404 29.1501 69.2786 29.4488 69.3447 29.2313C69.4274 28.9586 69.792 27.969 70.8525 26.9085L80.752 36.808L90.6515 46.7075C96.277 41.0819 97.404 33.6309 97.404 28.072H83.404ZM80.752 36.808L70.8525 26.9085C71.5176 26.2434 72.2933 25.7812 73.0036 25.5229C73.6608 25.2839 74.0237 25.304 73.888 25.304V39.304V53.304C79.5787 53.304 85.7679 51.5911 90.6515 46.7075L80.752 36.808ZM73.888 39.304V25.304H41.128V39.304V53.304H73.888V39.304ZM41.128 39.304H27.128V56.932H41.128H55.128V39.304H41.128ZM41.128 56.932V70.932H75.292V56.932V42.932H41.128V56.932ZM75.292 56.932L63.9697 65.1664C63.8481 64.9992 63.7662 64.8656 63.7167 64.7785C63.6673 64.6916 63.6465 64.6447 63.6479 64.6478C63.6492 64.6508 63.6692 64.6959 63.7026 64.7903C63.736 64.8846 63.78 65.0204 63.8308 65.203L77.32 61.456L90.8093 57.709C89.9969 54.7845 88.7236 51.5979 86.6143 48.6976L75.292 56.932ZM77.32 61.456L64.0384 65.8832C64.1614 66.252 64.256 66.7269 64.256 67.384H78.256H92.256C92.256 63.8811 91.7266 60.404 90.6016 57.0288L77.32 61.456ZM78.256 67.384H64.256C64.256 68.3789 64.1373 68.6177 64.2174 68.3587C64.316 68.0396 64.6894 67.0796 65.7045 66.0645L75.604 75.964L85.5035 85.8635C91.0739 80.2931 92.256 72.9638 92.256 67.384H78.256ZM75.604 75.964L65.7045 66.0645C66.3696 65.3994 67.1453 64.9372 67.8556 64.6789C68.5128 64.4399 68.8757 64.46 68.74 64.46V78.46V92.46C74.4307 92.46 80.6199 90.7471 85.5035 85.8635L75.604 75.964ZM68.74 78.46V64.46H41.44V78.46V92.46H68.74V78.46ZM41.44 78.46H27.44V111.376H41.44H55.44V78.46H41.44ZM41.44 111.376L37.7564 97.8693C37.7878 97.8607 37.5325 97.9285 36.8515 98.0453C36.2096 98.1553 35.3507 98.2817 34.2435 98.4201L35.98 112.312L37.7165 126.204C40.3108 125.88 42.9625 125.472 45.1236 124.883L41.44 111.376ZM35.98 112.312L34.1693 98.4296C32.3726 98.6639 30.5854 98.78 28.804 98.78V112.78V126.78C31.8066 126.78 34.8034 126.584 37.7908 126.194L35.98 112.312ZM28.804 112.78V98.78C27.1941 98.78 26.1106 98.6373 25.445 98.4894L22.408 112.156L19.371 125.823C22.4494 126.507 25.6299 126.78 28.804 126.78V112.78ZM22.408 112.156L24.841 98.369C24.9099 98.3812 25.5256 98.5152 26.284 99.084L17.884 110.284L9.484 121.484C12.7384 123.925 16.3701 125.307 19.975 125.943L22.408 112.156ZM17.884 110.284L26.284 99.084C26.8248 99.4896 27.2694 99.9572 27.6075 100.427C27.938 100.886 28.1083 101.265 28.1846 101.468L15.076 106.384L1.96739 111.3C3.39527 115.107 5.81299 118.731 9.484 121.484L17.884 110.284ZM15.076 106.384L28.1846 101.468C28.3015 101.78 28.2788 101.837 28.2333 101.518C28.1891 101.209 28.14 100.663 28.14 99.832H14.14H0.140001C0.140001 103.43 0.530089 107.467 1.96739 111.3L15.076 106.384ZM14.14 99.832H28.14V31.972H14.14H0.140001V99.832H14.14ZM14.14 31.972H28.14C28.14 31.0835 28.2692 30.7585 28.2551 30.7969C28.2479 30.8165 28.2166 30.8931 28.1491 30.9993C28.081 31.1064 28.0052 31.1977 27.9395 31.2635L18.04 21.364L8.14051 11.4645C2.36623 17.2388 0.140001 24.6426 0.140001 31.972H14.14ZM18.04 21.364L27.9395 31.2635C27.8737 31.3292 27.7824 31.405 27.6753 31.4731C27.5691 31.5406 27.4925 31.5719 27.4729 31.5791C27.4345 31.5932 27.7595 31.464 28.648 31.464V17.464V3.464C21.3186 3.464 13.9148 5.69023 8.14051 11.4645L18.04 21.364ZM28.648 17.464V31.464H80.596V17.464V3.464H28.648V17.464ZM166.987 91.408L180.004 96.5607L180.022 96.5151L180.04 96.4694L166.987 91.408ZM158.563 104.044L148.959 93.8577L148.885 93.9273L148.812 93.9979L158.563 104.044ZM145.771 111.844L141.097 98.6472L141.097 98.6472L145.771 111.844ZM112.387 111.688L107.471 124.797L107.471 124.797L112.387 111.688ZM99.4391 103.732L89.5396 113.631L89.6851 113.777L89.8349 113.918L99.4391 103.732ZM91.1711 90.94L78.1538 96.0927L78.1538 96.0927L91.1711 90.94ZM91.1711 57.4L78.1538 52.2473L78.1538 52.2473L91.1711 57.4ZM99.4391 44.764L109.19 54.8101L109.194 54.8059L99.4391 44.764ZM112.387 36.652L117.303 49.7606L117.303 49.7606L112.387 36.652ZM145.771 36.808L140.618 49.8253L140.736 49.872L140.855 49.9166L145.771 36.808ZM158.563 44.92L148.664 54.8195L148.809 54.965L148.959 55.1063L158.563 44.92ZM166.987 57.556L153.97 62.7087L153.97 62.7087L166.987 57.556ZM118.939 88.756L107.454 96.7611L107.593 96.961L107.739 97.156L118.939 88.756ZM139.219 88.6L127.734 80.5949L127.651 80.7137L127.57 80.8342L139.219 88.6ZM139.219 59.74L127.734 67.7451L127.792 67.8284L127.851 67.9109L139.219 59.74ZM118.939 59.74L130.307 67.9109L130.367 67.8284L130.425 67.7451L118.939 59.74ZM169.951 74.092H155.951C155.951 79.1138 155.183 83.1265 153.934 86.3466L166.987 91.408L180.04 96.4694C182.744 89.4975 183.951 81.9662 183.951 74.092H169.951ZM166.987 91.408L153.97 86.2553C152.693 89.4817 150.999 91.9344 148.959 93.8577L158.563 104.044L168.167 114.23C173.407 109.29 177.33 103.318 180.004 96.5607L166.987 91.408ZM158.563 104.044L148.812 93.9979C146.828 95.9238 144.334 97.5008 141.097 98.6472L145.771 111.844L150.445 125.041C157.192 122.651 163.226 119.028 168.314 114.09L158.563 104.044ZM145.771 111.844L141.097 98.6472C137.823 99.8067 133.871 100.496 129.079 100.496V114.496V128.496C136.559 128.496 143.735 127.417 150.445 125.041L145.771 111.844ZM129.079 114.496V100.496C124.372 100.496 120.505 99.7802 117.303 98.5794L112.387 111.688L107.471 124.797C114.253 127.34 121.514 128.496 129.079 128.496V114.496ZM112.387 111.688L117.303 98.5794C113.936 97.317 111.243 95.6196 109.043 93.5457L99.4391 103.732L89.8349 113.918C94.9154 118.708 100.854 122.315 107.471 124.797L112.387 111.688ZM99.4391 103.732L109.339 93.8325C107.253 91.7465 105.513 89.1333 104.188 85.7873L91.1711 90.94L78.1538 96.0927C80.7813 102.731 84.5536 108.645 89.5396 113.631L99.4391 103.732ZM91.1711 90.94L104.188 85.7873C102.958 82.679 102.207 78.85 102.207 74.092H88.2071H74.2071C74.2071 81.814 75.4322 89.217 78.1538 96.0927L91.1711 90.94ZM88.2071 74.092H102.207C102.207 69.4704 102.948 65.6872 104.188 62.5527L91.1711 57.4L78.1538 52.2473C75.4425 59.0968 74.2071 66.4416 74.2071 74.092H88.2071ZM91.1711 57.4L104.188 62.5527C105.501 59.2378 107.2 56.7409 109.19 54.8101L99.4391 44.764L89.6884 34.7179C84.6058 39.651 80.7937 45.5782 78.1538 52.2473L91.1711 57.4ZM99.4391 44.764L109.194 54.8059C111.38 52.6825 114.025 50.9898 117.303 49.7606L112.387 36.652L107.471 23.5434C100.765 26.0581 94.7782 29.7735 89.6841 34.7221L99.4391 44.764ZM112.387 36.652L117.303 49.7606C120.505 48.5598 124.372 47.844 129.079 47.844V33.844V19.844C121.514 19.844 114.253 21.0002 107.471 23.5434L112.387 36.652ZM129.079 33.844V47.844C133.701 47.844 137.484 48.5845 140.618 49.8253L145.771 36.808L150.924 23.7907C144.074 21.0794 136.73 19.844 129.079 19.844V33.844ZM145.771 36.808L140.855 49.9166C144.102 51.1341 146.633 52.7888 148.664 54.8195L158.563 44.92L168.463 35.0205C163.421 29.9792 157.424 26.2259 150.687 23.6994L145.771 36.808ZM158.563 44.92L148.959 55.1063C150.999 57.0296 152.693 59.4823 153.97 62.7087L166.987 57.556L180.004 52.4033C177.33 45.6457 173.407 39.6744 168.167 34.7337L158.563 44.92ZM166.987 57.556L153.97 62.7087C155.221 65.8701 155.951 69.6072 155.951 74.092H169.951H183.951C183.951 66.5128 182.705 59.2259 180.004 52.4033L166.987 57.556ZM115.351 74.092H101.351C101.351 81.9109 102.779 90.0537 107.454 96.7611L118.939 88.756L130.425 80.7509C130.315 80.5943 129.351 78.9611 129.351 74.092H115.351ZM118.939 88.756L107.739 97.156C113.03 104.21 120.718 107.748 129.235 107.748V93.748V79.748C129.033 79.748 128.984 79.7289 129.056 79.7441C129.133 79.7606 129.291 79.8049 129.493 79.9026C129.696 80.0011 129.872 80.1195 130.004 80.2312C130.133 80.3397 130.172 80.4001 130.139 80.356L118.939 88.756ZM129.235 93.748V107.748C137.955 107.748 145.806 103.959 150.868 96.3658L139.219 88.6L127.57 80.8342C127.57 80.8352 127.591 80.8039 127.637 80.7489C127.684 80.6935 127.754 80.6185 127.848 80.5321C128.046 80.3506 128.299 80.1681 128.591 80.0178C129.217 79.6949 129.559 79.748 129.235 79.748V93.748ZM139.219 88.6L150.705 96.6051C155.357 89.9295 156.807 81.8651 156.807 74.092H142.807H128.807C128.807 78.7989 127.865 80.4065 127.734 80.5949L139.219 88.6ZM142.807 74.092H156.807C156.807 66.3606 155.374 58.2284 150.587 51.5691L139.219 59.74L127.851 67.9109C127.849 67.9076 128.807 69.3434 128.807 74.092H142.807ZM139.219 59.74L150.705 51.7349C145.561 44.3541 137.786 40.592 129.079 40.592V54.592V68.592C129.397 68.592 129.106 68.6433 128.552 68.3623C128.298 68.2334 128.083 68.0802 127.921 67.9359C127.764 67.7958 127.71 67.7107 127.734 67.7451L139.219 59.74ZM129.079 54.592V40.592C120.373 40.592 112.598 44.3541 107.454 51.7349L118.939 59.74L130.425 67.7451C130.449 67.7107 130.394 67.7958 130.237 67.9359C130.075 68.0802 129.86 68.2334 129.606 68.3623C129.052 68.6433 128.761 68.592 129.079 68.592V54.592ZM118.939 59.74L107.571 51.5691C102.785 58.2284 101.351 66.3606 101.351 74.092H115.351H129.351C129.351 69.3434 130.31 67.9076 130.307 67.9109L118.939 59.74ZM209.409 111.844L213.432 125.254L223.409 122.26V111.844H209.409ZM204.417 112.78L202.526 98.9084L202.482 98.9144L202.437 98.9207L204.417 112.78ZM191.313 112.78L188.88 126.567L188.946 126.579L189.012 126.59L191.313 112.78ZM186.789 110.908L195.189 99.708L195.189 99.708L186.789 110.908ZM183.825 107.164L170.717 112.08L170.908 112.59L171.139 113.084L183.825 107.164ZM184.137 47.884L171.764 41.3336L171.688 41.4774L171.615 41.623L184.137 47.884ZM188.037 43.204L196.866 54.0696L196.866 54.0696L188.037 43.204ZM194.121 39.616L199.704 52.455L199.83 52.4002L199.955 52.3429L194.121 39.616ZM202.077 36.652L206.055 50.0752L206.055 50.0752L202.077 36.652ZM210.813 34.78L212.726 48.6487L212.96 48.6165L213.192 48.5764L210.813 34.78ZM231.717 36.964L223.856 48.5487L224 48.6464L224.147 48.7405L231.717 36.964ZM235.461 50.692L248.842 54.8092L248.884 54.6741L248.923 54.5381L235.461 50.692ZM233.901 54.436V68.436H242.212L246.192 61.1399L233.901 54.436ZM227.193 54.748L228.461 68.6905L228.461 68.6905L227.193 54.748ZM220.485 55.684L217.866 41.9313L217.866 41.9313L220.485 55.684ZM214.245 57.088L217.282 70.7546L217.547 70.6959L217.808 70.627L214.245 57.088ZM209.409 58.648L203.543 45.9366L195.409 49.6904V58.648H209.409ZM209.409 111.844L205.386 98.4344C205.526 98.3926 205.383 98.4427 204.801 98.5518C204.263 98.6528 203.516 98.7734 202.526 98.9084L204.417 112.78L206.309 126.652C208.702 126.325 211.281 125.899 213.432 125.254L209.409 111.844ZM204.417 112.78L202.437 98.9207C200.961 99.1316 199.338 99.248 197.553 99.248V113.248V127.248C200.553 127.248 203.505 127.052 206.397 126.639L204.417 112.78ZM197.553 113.248V99.248C195.885 99.248 194.59 99.1331 193.615 98.9705L191.313 112.78L189.012 126.59C191.78 127.051 194.645 127.248 197.553 127.248V113.248ZM191.313 112.78L193.746 98.993C193.815 99.0052 194.431 99.1392 195.189 99.708L186.789 110.908L178.389 122.108C181.644 124.549 185.275 125.931 188.88 126.567L191.313 112.78ZM186.789 110.908L195.189 99.708C195.548 99.9771 195.851 100.279 196.089 100.58C196.323 100.876 196.453 101.117 196.512 101.244L183.825 107.164L171.139 113.084C172.737 116.51 175.115 119.652 178.389 122.108L186.789 110.908ZM183.825 107.164L196.934 102.248C197.037 102.522 197.017 102.569 196.976 102.29C196.936 102.015 196.889 101.523 196.889 100.768H182.889H168.889C168.889 104.34 169.298 108.296 170.717 112.08L183.825 107.164ZM182.889 100.768H196.889V53.968H182.889H168.889V100.768H182.889ZM182.889 53.968H196.889C196.889 53.5747 196.924 53.4248 196.916 53.4662C196.906 53.5157 196.847 53.7697 196.659 54.145L184.137 47.884L171.615 41.623C169.574 45.7054 168.889 50.0037 168.889 53.968H182.889ZM184.137 47.884L196.51 54.4344C196.517 54.4213 196.532 54.3961 196.569 54.3506C196.609 54.3032 196.697 54.2066 196.866 54.0696L188.037 43.204L179.209 32.3384C176.192 34.79 173.642 37.7871 171.764 41.3336L184.137 47.884ZM188.037 43.204L196.866 54.0696C197.356 53.671 198.236 53.0931 199.704 52.455L194.121 39.616L188.539 26.777C185.223 28.2189 182.046 30.033 179.209 32.3384L188.037 43.204ZM194.121 39.616L199.955 52.3429C201.811 51.4921 203.839 50.7316 206.055 50.0752L202.077 36.652L198.1 23.2288C194.7 24.2364 191.424 25.4519 188.288 26.8891L194.121 39.616ZM202.077 36.652L206.055 50.0752C208.161 49.4512 210.381 48.9722 212.726 48.6487L210.813 34.78L208.9 20.9113C205.214 21.4198 201.61 22.1888 198.1 23.2288L202.077 36.652ZM210.813 34.78L213.192 48.5764C215.434 48.1899 217.654 48 219.861 48V34V20C216.036 20 212.225 20.3301 208.435 20.9836L210.813 34.78ZM219.861 34V48C223.177 48 224.048 48.6784 223.856 48.5487L231.717 36.964L239.578 25.3793C233.563 21.2976 226.53 20 219.861 20V34ZM231.717 36.964L224.147 48.7405C223.82 48.5303 223.447 48.2267 223.092 47.8211C222.737 47.415 222.479 46.998 222.307 46.6284C221.97 45.9065 222.085 45.6538 222.085 46.324H236.085H250.085C250.085 38.611 247.27 30.3188 239.288 25.1875L231.717 36.964ZM236.085 46.324H222.085C222.085 46.4279 222.073 46.5904 222 46.8459L235.461 50.692L248.923 54.5381C249.682 51.8816 250.085 49.1321 250.085 46.324H236.085ZM235.461 50.692L222.08 46.5748C221.917 47.1058 221.749 47.4782 221.611 47.7321L233.901 54.436L246.192 61.1399C247.301 59.1057 248.174 56.9822 248.842 54.8092L235.461 50.692ZM233.901 54.436V40.436C231.273 40.436 228.614 40.5611 225.926 40.8055L227.193 54.748L228.461 68.6905C230.349 68.5188 232.162 68.436 233.901 68.436V54.436ZM227.193 54.748L225.926 40.8055C223.199 41.0534 220.512 41.4273 217.866 41.9313L220.485 55.684L223.105 69.4367C224.827 69.1087 226.611 68.8586 228.461 68.6905L227.193 54.748ZM220.485 55.684L217.866 41.9313C215.392 42.4024 212.996 42.9401 210.682 43.549L214.245 57.088L217.808 70.627C219.447 70.1959 221.21 69.7976 223.105 69.4367L220.485 55.684ZM214.245 57.088L211.208 43.4214C208.625 43.9955 206.017 44.7947 203.543 45.9366L209.409 58.648L215.276 71.3594C215.506 71.2533 216.122 71.0125 217.282 70.7546L214.245 57.088ZM209.409 58.648H195.409V111.844H209.409H223.409V58.648H209.409ZM329.893 111.376L333.576 124.883L343.893 122.069V111.376H329.893ZM324.589 112.312L322.778 98.4296L324.589 112.312ZM306.805 110.44L298.81 121.933L298.981 122.052L299.157 122.167L306.805 110.44ZM303.217 79.084H317.217V74.7976L314.817 71.246L303.217 79.084ZM294.793 66.292L283.025 73.8758L283.025 73.8758L294.793 66.292ZM285.901 51.94L273.873 59.1053L273.873 59.1053L285.901 51.94ZM277.789 37.588L265.376 44.0639L265.406 44.1202L265.436 44.1762L277.789 37.588ZM271.705 24.484L260.355 16.2871L255.869 22.498L258.682 29.6243L271.705 24.484ZM277.165 19.336L269.517 7.60944L269.396 7.6879L269.278 7.76881L277.165 19.336ZM295.729 19.492L287.963 31.1407L288.072 31.2133L288.182 31.2838L295.729 19.492ZM303.061 28.852L315.597 22.621L315.59 22.606L315.583 22.591L303.061 28.852ZM316.009 54.904L303.472 61.1349L307.333 68.904H316.009V54.904ZM316.945 54.904V68.904H325.983L329.704 60.6662L316.945 54.904ZM320.689 46.168L307.795 40.713L307.741 40.8403L307.69 40.9685L320.689 46.168ZM323.965 38.212L336.963 43.4115L336.998 43.3248L337.031 43.2377L323.965 38.212ZM327.241 29.944L340.206 35.2262L340.239 35.1448L340.271 35.0631L327.241 29.944ZM331.141 19.96L324.88 7.43802L320.05 9.85296L318.092 14.8857L331.141 19.96ZM337.381 17.776L340.483 31.4279L340.483 31.4279L337.381 17.776ZM353.137 19.96L344.447 30.9366L344.697 31.1349L344.956 31.3215L353.137 19.96ZM356.257 33.064L342.825 29.1137L342.825 29.1137L356.257 33.064ZM352.669 41.176L365.042 47.7264L365.081 47.6529L365.119 47.5789L352.669 41.176ZM344.401 55.684L332.36 48.5412L332.315 48.6172L332.271 48.6938L344.401 55.684ZM329.893 79.708L318 72.3218L315.893 75.7144V79.708H329.893ZM329.893 111.376L326.209 97.8693C326.224 97.8651 326.157 97.8838 325.984 97.9208C325.816 97.9568 325.583 98.0028 325.276 98.057C324.654 98.1666 323.831 98.2922 322.778 98.4296L324.589 112.312L326.399 126.194C328.917 125.866 331.468 125.458 333.576 124.883L329.893 111.376ZM324.589 112.312L322.778 98.4296C320.954 98.6675 319.219 98.78 317.569 98.78V112.78V126.78C320.494 126.78 323.439 126.581 326.399 126.194L324.589 112.312ZM317.569 112.78V98.78C315.894 98.78 314.838 98.6395 314.264 98.5145C313.68 98.3877 313.879 98.3399 314.452 98.7135L306.805 110.44L299.157 122.167C304.89 125.906 311.709 126.78 317.569 126.78V112.78ZM306.805 110.44L314.799 98.9473C315.635 99.5283 316.255 100.194 316.682 100.801C317.094 101.386 317.274 101.84 317.334 102.011C317.391 102.176 317.355 102.13 317.308 101.791C317.262 101.456 317.217 100.92 317.217 100.144H303.217H289.217C289.217 106.429 290.49 116.145 298.81 121.933L306.805 110.44ZM303.217 100.144H317.217V79.084H303.217H289.217V100.144H303.217ZM303.217 79.084L314.817 71.246C312.283 67.4966 309.532 63.319 306.561 58.7082L294.793 66.292L283.025 73.8758C286.085 78.625 288.95 82.9754 291.616 86.922L303.217 79.084ZM294.793 66.292L306.561 58.7082C303.635 54.1691 300.758 49.5248 297.928 44.7747L285.901 51.94L273.873 59.1053C276.867 64.1312 279.918 69.0549 283.025 73.8758L294.793 66.292ZM285.901 51.94L297.928 44.7747C295.121 40.0629 292.526 35.4714 290.141 30.9998L277.789 37.588L265.436 44.1762C268.043 49.0646 270.856 54.0411 273.873 59.1053L285.901 51.94ZM277.789 37.588L290.201 31.1121C287.874 26.6526 286.067 22.738 284.727 19.3437L271.705 24.484L258.682 29.6243C260.463 34.134 262.711 38.9554 265.376 44.0639L277.789 37.588ZM271.705 24.484L283.054 32.6809C283.288 32.3573 283.844 31.726 285.051 30.9032L277.165 19.336L269.278 7.76881C265.909 10.066 262.825 12.8667 260.355 16.2871L271.705 24.484ZM277.165 19.336L284.812 31.0625C284.702 31.1342 284.657 31.1331 284.765 31.1043C284.889 31.0709 285.242 30.996 285.901 30.996V16.996V2.996C280.307 2.996 274.607 4.28945 269.517 7.60944L277.165 19.336ZM285.901 16.996V30.996C288.142 30.996 288.446 31.463 287.963 31.1407L295.729 19.492L303.494 7.84328C298.019 4.19295 291.771 2.996 285.901 2.996V16.996ZM295.729 19.492L288.182 31.2838C287.838 31.0637 287.978 31.0595 288.49 31.7133C288.995 32.3578 289.7 33.4357 290.539 35.113L303.061 28.852L315.583 22.591C312.827 17.0799 308.974 11.3476 303.275 7.7002L295.729 19.492ZM303.061 28.852L290.524 35.0829L303.472 61.1349L316.009 54.904L328.545 48.6731L315.597 22.621L303.061 28.852ZM316.009 54.904V68.904H316.945V54.904V40.904H316.009V54.904ZM316.945 54.904L329.704 60.6662C331.223 57.3022 332.555 54.1983 333.687 51.3675L320.689 46.168L307.69 40.9685C306.742 43.3377 305.578 46.0578 304.185 49.1418L316.945 54.904ZM320.689 46.168L333.582 51.623C334.76 48.8382 335.887 46.101 336.963 43.4115L323.965 38.212L310.966 33.0125C309.962 35.523 308.905 38.0898 307.795 40.713L320.689 46.168ZM323.965 38.212L337.031 43.2377C338.037 40.6234 339.095 37.9529 340.206 35.2262L327.241 29.944L314.275 24.6618C313.098 27.5511 311.972 30.3926 310.898 33.1863L323.965 38.212ZM327.241 29.944L340.271 35.0631C341.422 32.1327 342.728 28.7893 344.189 25.0342L331.141 19.96L318.092 14.8857C316.641 18.6187 315.347 21.9313 314.21 24.8249L327.241 29.944ZM331.141 19.96L337.402 32.482C338.157 32.1041 339.16 31.7287 340.483 31.4279L337.381 17.776L334.278 4.12413C331.025 4.86331 327.868 5.94392 324.88 7.43802L331.141 19.96ZM337.381 17.776L340.483 31.4279C341.881 31.1103 343.02 30.996 343.933 30.996V16.996V2.996C340.686 2.996 337.456 3.40172 334.278 4.12413L337.381 17.776ZM343.933 16.996V30.996C344.481 30.996 344.691 31.0692 344.672 31.063C344.666 31.0611 344.629 31.0482 344.575 31.0194C344.521 30.9904 344.476 30.9596 344.447 30.9366L353.137 19.96L361.826 8.98335C356.509 4.77341 350.252 2.996 343.933 2.996V16.996ZM353.137 19.96L344.956 31.3215C344.316 30.8607 343.697 30.1402 343.316 29.3022C342.975 28.5515 343.037 28.1754 343.037 28.54H357.037H371.037C371.037 21.2144 368.33 13.6481 361.317 8.59851L353.137 19.96ZM357.037 28.54H343.037C343.037 28.2122 343.069 28.0913 343.045 28.2283C343.023 28.3578 342.963 28.6457 342.825 29.1137L356.257 33.064L369.688 37.0143C370.423 34.513 371.037 31.5974 371.037 28.54H357.037ZM356.257 33.064L342.825 29.1137C342.827 29.1082 342.787 29.2438 342.669 29.55C342.555 29.8475 342.391 30.2453 342.166 30.7549C341.711 31.7828 341.073 33.1115 340.219 34.7731L352.669 41.176L365.119 47.5789C367.028 43.8661 368.765 40.1523 369.688 37.0143L356.257 33.064ZM352.669 41.176L340.296 34.6256C338.581 37.8646 335.958 42.4748 332.36 48.5412L344.401 55.684L356.441 62.8268C360.123 56.6212 363.012 51.5594 365.042 47.7264L352.669 41.176ZM344.401 55.684L332.271 48.6938C328.844 54.6396 324.099 62.5012 318 72.3218L329.893 79.708L341.786 87.0942C347.958 77.1548 352.885 69.0004 356.531 62.6742L344.401 55.684ZM329.893 79.708H315.893V111.376H329.893H343.893V79.708H329.893ZM415.259 58.336L424.409 68.9315L424.427 68.916L424.445 68.9005L415.259 58.336ZM415.103 39.928L405.663 50.2668L405.897 50.4803L406.14 50.6831L415.103 39.928ZM400.283 36.808V50.808H400.918L401.55 50.7505L400.283 36.808ZM397.007 37.12L394.502 23.3458L383.007 25.4359V37.12H397.007ZM397.007 61.3H383.007V75.3H397.007V61.3ZM397.163 111.376L400.846 124.883L411.163 122.069V111.376H397.163ZM391.703 112.312L389.966 98.4201L389.929 98.4248L389.892 98.4296L391.703 112.312ZM378.131 112.156L381.168 98.4894L380.867 98.4226L380.564 98.369L378.131 112.156ZM373.607 110.284L365.207 121.484L365.207 121.484L373.607 110.284ZM370.799 106.384L357.69 111.3L357.69 111.3L370.799 106.384ZM371.579 21.364L381.478 31.2635L381.478 31.2635L371.579 21.364ZM376.571 18.4L381.196 31.614L381.213 31.608L381.23 31.6019L376.571 18.4ZM388.583 15.748L390.2 29.6543L390.337 29.6383L390.474 29.6196L388.583 15.748ZM444.119 62.86L431.12 57.6605L431.085 57.7472L431.052 57.8343L444.119 62.86ZM436.943 73.468L446.495 83.7028L446.501 83.6973L446.507 83.6918L436.943 73.468ZM424.931 80.332L429.271 93.6422L429.357 93.6142L429.442 93.5851L424.931 80.332ZM397.163 82.672V68.672H383.163V82.672H397.163ZM405.275 61.3V75.3C411.535 75.3 418.653 73.903 424.409 68.9315L415.259 58.336L406.108 47.7405C406.377 47.5083 406.625 47.3505 406.813 47.2514C406.996 47.1546 407.093 47.1288 407.062 47.1379C406.975 47.1639 406.441 47.3 405.275 47.3V61.3ZM415.259 58.336L424.445 68.9005C430.782 63.3905 432.847 55.843 432.847 48.976H418.847H404.847C404.847 49.7473 404.732 49.8029 404.877 49.4249C404.953 49.2266 405.087 48.9462 405.305 48.63C405.525 48.311 405.788 48.0186 406.072 47.7715L415.259 58.336ZM418.847 48.976H432.847C432.847 41.8565 430.441 34.4861 424.065 29.1729L415.103 39.928L406.14 50.6831C405.918 50.4981 405.679 50.2534 405.458 49.9526C405.237 49.652 405.08 49.3569 404.974 49.1029C404.765 48.5964 404.847 48.4591 404.847 48.976H418.847ZM415.103 39.928L424.542 29.5892C418.625 24.1859 411.13 22.652 404.495 22.652V36.652V50.652C405.786 50.652 406.395 50.8073 406.526 50.8476C406.603 50.8715 406.194 50.752 405.663 50.2668L415.103 39.928ZM404.495 36.652V22.652C402.577 22.652 400.721 22.7104 399.015 22.8655L400.283 36.808L401.55 50.7505C402.132 50.6976 403.084 50.652 404.495 50.652V36.652ZM400.283 36.808V22.808C398.311 22.808 396.377 23.0049 394.502 23.3458L397.007 37.12L399.511 50.8942C399.924 50.8191 400.174 50.808 400.283 50.808V36.808ZM397.007 37.12H383.007V61.3H397.007H411.007V37.12H397.007ZM397.007 61.3V75.3H405.275V61.3V47.3H397.007V61.3ZM397.163 111.376L393.479 97.8693C393.51 97.8607 393.255 97.9285 392.574 98.0453C391.932 98.1553 391.073 98.2817 389.966 98.4201L391.703 112.312L393.439 126.204C396.033 125.88 398.685 125.472 400.846 124.883L397.163 111.376ZM391.703 112.312L389.892 98.4296C388.095 98.6639 386.308 98.78 384.527 98.78V112.78V126.78C387.529 126.78 390.526 126.584 393.513 126.194L391.703 112.312ZM384.527 112.78V98.78C382.917 98.78 381.833 98.6373 381.168 98.4894L378.131 112.156L375.094 125.823C378.172 126.507 381.353 126.78 384.527 126.78V112.78ZM378.131 112.156L380.564 98.369C380.633 98.3812 381.248 98.5152 382.007 99.084L373.607 110.284L365.207 121.484C368.461 123.925 372.093 125.307 375.698 125.943L378.131 112.156ZM373.607 110.284L382.007 99.084C382.547 99.4896 382.992 99.9572 383.33 100.427C383.661 100.886 383.831 101.265 383.907 101.468L370.799 106.384L357.69 111.3C359.118 115.107 361.536 118.731 365.207 121.484L373.607 110.284ZM370.799 106.384L383.907 101.468C384.024 101.78 384.001 101.837 383.956 101.518C383.912 101.209 383.863 100.663 383.863 99.832H369.863H355.863C355.863 103.43 356.253 107.467 357.69 111.3L370.799 106.384ZM369.863 99.832H383.863V26.356H369.863H355.863V99.832H369.863ZM369.863 26.356H383.863C383.863 26.5486 383.774 28.9679 381.478 31.2635L371.579 21.364L361.679 11.4645C357.096 16.0481 355.863 21.7954 355.863 26.356H369.863ZM371.579 21.364L381.478 31.2635C380.917 31.825 380.619 31.8157 381.196 31.614L376.571 18.4L371.946 5.18597C368.362 6.4403 364.737 8.40694 361.679 11.4645L371.579 21.364ZM376.571 18.4L381.23 31.6019C383.608 30.7625 386.565 30.0769 390.2 29.6543L388.583 15.748L386.966 1.84169C381.656 2.45909 376.605 3.54153 371.911 5.19813L376.571 18.4ZM388.583 15.748L390.474 29.6196C394.429 29.0803 398.373 28.812 402.311 28.812V14.812V0.811996C397.096 0.811996 391.888 1.16768 386.691 1.87637L388.583 15.748ZM402.311 14.812V28.812C414.916 28.812 422.261 31.5381 426.426 34.9044L435.227 24.016L444.027 13.1276C433.008 4.22193 418.41 0.811996 402.311 0.811996V14.812ZM435.227 24.016L426.426 34.9044C430.454 38.1591 432.615 42.332 432.615 48.976H446.615H460.615C460.615 34.612 455.184 22.1449 444.027 13.1276L435.227 24.016ZM446.615 48.976H432.615C432.615 52.5338 432.038 55.3656 431.12 57.6605L444.119 62.86L457.117 68.0595C459.527 62.0343 460.615 55.6102 460.615 48.976H446.615ZM444.119 62.86L431.052 57.8343C430.264 59.8829 429.083 61.6501 427.378 63.2442L436.943 73.468L446.507 83.6918C451.251 79.2539 454.853 73.9491 457.185 67.8857L444.119 62.86ZM436.943 73.468L427.39 63.2332C425.989 64.5411 423.818 65.9218 420.419 67.0789L424.931 80.332L429.442 93.5851C435.819 91.4142 441.656 88.2189 446.495 83.7028L436.943 73.468ZM424.931 80.332L420.59 67.0218C417.518 68.0236 413.475 68.672 408.239 68.672V82.672V96.672C415.69 96.672 422.775 95.7604 429.271 93.6422L424.931 80.332ZM408.239 82.672V68.672H397.163V82.672V96.672H408.239V82.672ZM397.163 82.672H383.163V111.376H397.163H411.163V82.672H397.163ZM486.577 74.404L482.06 87.6551L482.105 87.6705L482.15 87.6856L486.577 74.404ZM474.097 69.724L468.412 82.5174L468.561 82.584L468.713 82.6471L474.097 69.724ZM458.029 55.684L445.27 61.4462L445.384 61.6979L445.507 61.945L458.029 55.684ZM465.985 22.768L457.425 11.69L457.384 11.7217L457.343 11.7537L465.985 22.768ZM507.169 15.748L509.41 1.92852L509.41 1.92852L507.169 15.748ZM516.997 18.712L510.736 31.234L511.021 31.3762L511.312 31.5054L516.997 18.712ZM523.549 23.704L512.349 32.104L512.454 32.2428L512.561 32.379L523.549 23.704ZM524.017 37.744L535.666 45.5098L535.762 45.366L535.854 45.2199L524.017 37.744ZM519.493 42.58L511.977 54.3913L520.229 59.6421L527.998 53.701L519.493 42.58ZM510.289 38.836L506.3 52.2555L506.468 52.3054L506.637 52.3511L510.289 38.836ZM487.357 39.148L494.303 51.3034L494.517 51.1813L494.726 51.0517L487.357 39.148ZM486.109 47.884L477.574 58.9807L477.852 59.1948L478.141 59.3947L486.109 47.884ZM492.193 50.536L496.469 37.205L496.39 37.1796L496.311 37.1551L492.193 50.536ZM500.461 53.188L496.185 66.519L496.195 66.5221L496.205 66.5252L500.461 53.188ZM522.925 65.2L513.337 75.4008L513.442 75.4995L513.549 75.596L522.925 65.2ZM520.429 106.384L529.013 117.444L529.064 117.404L529.115 117.364L520.429 106.384ZM476.281 113.248L479.027 99.5199L478.891 99.4927L478.755 99.4682L476.281 113.248ZM465.517 109.972L459.086 122.407L459.339 122.538L459.597 122.659L465.517 109.972ZM458.341 104.356L447.019 112.59L447.232 112.883L447.46 113.165L458.341 104.356ZM458.497 88.912L469.165 97.9791L469.273 97.8512L469.379 97.7208L458.497 88.912ZM464.269 83.92L472.919 72.9115L465.637 67.19L457.523 71.653L464.269 83.92ZM474.877 89.848L469.678 102.847L469.733 102.869L469.788 102.89L474.877 89.848ZM499.525 90.004L507.925 101.204L507.925 101.204L499.525 90.004ZM500.149 79.864L492.218 91.4006L492.47 91.5739L492.729 91.736L500.149 79.864ZM493.129 76.588L497.693 63.3528L497.625 63.3293L497.557 63.3064L493.129 76.588ZM486.577 74.404L491.095 61.1529C486.758 59.6744 482.893 58.2221 479.482 56.8009L474.097 69.724L468.713 82.6471C472.79 84.3459 477.245 86.0136 482.06 87.6551L486.577 74.404ZM474.097 69.724L479.783 56.9306C477.067 55.7234 475.015 54.417 473.469 53.1086L464.425 63.796L455.382 74.4834C459.244 77.751 463.64 80.3966 468.412 82.5174L474.097 69.724ZM464.425 63.796L473.469 53.1086C472.189 52.0259 471.25 50.8205 470.551 49.423L458.029 55.684L445.507 61.945C447.929 66.7875 451.254 70.9901 455.382 74.4834L464.425 63.796ZM458.029 55.684L470.789 49.9218C470.353 48.9575 469.845 47.1327 469.845 43.984H455.845H441.845C441.845 49.9873 442.794 55.9625 445.27 61.4462L458.029 55.684ZM455.845 43.984H469.845C469.845 39.299 471.362 36.3445 474.627 33.7823L465.985 22.768L457.343 11.7537C447.089 19.7995 441.845 30.989 441.845 43.984H455.845ZM465.985 22.768L474.546 33.846C478.123 31.0816 484.262 28.812 494.689 28.812V14.812V0.811996C480.573 0.811996 467.576 3.84639 457.425 11.69L465.985 22.768ZM494.689 14.812V28.812C498.518 28.812 501.92 29.0796 504.928 29.5675L507.169 15.748L509.41 1.92852C504.723 1.16838 499.805 0.811996 494.689 0.811996V14.812ZM507.169 15.748L504.928 29.5675C507.761 30.0268 509.604 30.6679 510.736 31.234L516.997 18.712L523.258 6.19C518.983 4.05207 514.274 2.71721 509.41 1.92852L507.169 15.748ZM516.997 18.712L511.312 31.5054C511.838 31.7391 512.126 31.9321 512.257 32.032C512.379 32.1254 512.386 32.1532 512.349 32.104L523.549 23.704L534.749 15.304C531.516 10.9925 527.276 7.9598 522.683 5.91863L516.997 18.712ZM523.549 23.704L512.561 32.379C512.358 32.1213 512.156 31.7682 512.023 31.3682C511.961 31.1822 511.926 31.0232 511.908 30.9038C511.889 30.7858 511.889 30.7221 511.889 30.724H525.889H539.889C539.889 25.1212 538.198 19.6646 534.538 15.029L523.549 23.704ZM525.889 30.724H511.889C511.889 30.9977 511.858 31.0341 511.894 30.8997C511.912 30.8339 511.942 30.7386 511.993 30.6229C512.043 30.5067 512.106 30.3862 512.181 30.2681L524.017 37.744L535.854 45.2199C538.726 40.6731 539.889 35.6503 539.889 30.724H525.889ZM524.017 37.744L512.369 29.9782C511.967 30.5803 511.518 31.0547 510.989 31.459L519.493 42.58L527.998 53.701C531.005 51.4013 533.572 48.6517 535.666 45.5098L524.017 37.744ZM519.493 42.58L527.01 30.7687C523.109 28.2866 518.578 26.5738 513.942 25.3209L510.289 38.836L506.637 52.3511C509.697 53.1782 511.302 53.9613 511.977 54.3913L519.493 42.58ZM510.289 38.836L514.279 25.4165C508.97 23.8381 503.395 23.12 497.653 23.12V37.12V51.12C501.064 51.12 503.913 51.5459 506.3 52.2555L510.289 38.836ZM497.653 37.12V23.12C492.206 23.12 485.551 23.801 479.989 27.2443L487.357 39.148L494.726 51.0517C493.972 51.5188 493.653 51.4856 494.275 51.3631C494.859 51.248 495.938 51.12 497.653 51.12V37.12ZM487.357 39.148L480.412 26.9926C475.246 29.944 470.081 35.5734 470.081 43.984H484.081H498.081C498.081 45.7509 497.54 47.5968 496.491 49.1449C495.541 50.5484 494.545 51.1654 494.303 51.3034L487.357 39.148ZM484.081 43.984H470.081C470.081 50.3374 473.147 55.5755 477.574 58.9807L486.109 47.884L494.645 36.7873C495.323 37.3085 496.264 38.2356 497.01 39.6701C497.776 41.1435 498.081 42.6649 498.081 43.984H484.081ZM486.109 47.884L478.141 59.3947C481.225 61.5299 484.837 62.9202 488.076 63.9169L492.193 50.536L496.311 37.1551C495.33 36.8534 494.66 36.5989 494.239 36.4153C493.792 36.2206 493.802 36.1823 494.078 36.3733L486.109 47.884ZM492.193 50.536L487.917 63.867L496.185 66.519L500.461 53.188L504.737 39.857L496.469 37.205L492.193 50.536ZM500.461 53.188L496.205 66.5252C504.8 69.2683 510.174 72.4279 513.337 75.4008L522.925 65.2L532.514 54.9992C525.277 48.1961 515.675 43.3477 504.718 39.8508L500.461 53.188ZM522.925 65.2L513.549 75.596C515.416 77.2799 516.881 79.7819 516.881 84.856H530.881H544.881C544.881 73.2901 541.043 62.6881 532.302 54.804L522.925 65.2ZM530.881 84.856H516.881C516.881 89.3909 515.375 92.5316 511.744 95.404L520.429 106.384L529.115 117.364C539.42 109.212 544.881 98.0011 544.881 84.856H530.881ZM520.429 106.384L511.846 95.3242C508.336 98.0483 501.676 100.496 489.697 100.496V114.496V128.496C504.759 128.496 518.587 125.536 529.013 117.444L520.429 106.384ZM489.697 114.496V100.496C485.721 100.496 482.177 100.15 479.027 99.5199L476.281 113.248L473.536 126.976C478.706 128.01 484.106 128.496 489.697 128.496V114.496ZM476.281 113.248L478.755 99.4682C475.664 98.9135 473.271 98.1408 471.438 97.2854L465.517 109.972L459.597 122.659C464.004 124.715 468.787 126.126 473.808 127.028L476.281 113.248ZM465.517 109.972L471.949 97.537C470.301 96.6841 469.548 95.949 469.223 95.5472L458.341 104.356L447.46 113.165C450.671 117.131 454.702 120.14 459.086 122.407L465.517 109.972ZM458.341 104.356L469.664 96.1216C469.664 96.1214 469.67 96.1296 469.68 96.146C469.69 96.1625 469.703 96.1855 469.718 96.2146C469.749 96.2755 469.779 96.3471 469.803 96.4231C469.828 96.4989 469.84 96.5583 469.845 96.592C469.85 96.6247 469.845 96.6156 469.845 96.556H455.845H441.845C441.845 102.334 443.561 107.836 447.019 112.59L458.341 104.356ZM455.845 96.556H469.845C469.845 96.4269 469.862 96.6065 469.735 96.9718C469.602 97.3565 469.39 97.7142 469.165 97.9791L458.497 88.912L447.83 79.8449C443.681 84.7265 441.845 90.591 441.845 96.556H455.845ZM458.497 88.912L469.379 97.7208C470.212 96.6922 470.789 96.3121 471.016 96.187L464.269 83.92L457.523 71.653C453.59 73.8159 450.319 76.7638 447.616 80.1032L458.497 88.912ZM464.269 83.92L455.62 94.9285C459.774 98.1923 464.529 100.787 469.678 102.847L474.877 89.848L480.077 76.8493C476.906 75.5808 474.589 74.2237 472.919 72.9115L464.269 83.92ZM474.877 89.848L469.788 102.89C475.815 105.242 482.186 106.344 488.761 106.344V92.344V78.344C485.352 78.344 482.468 77.7817 479.967 76.8059L474.877 89.848ZM488.761 92.344V106.344C494.43 106.344 502.004 105.645 507.925 101.204L499.525 90.004L491.125 78.804C491.698 78.3748 492.149 78.1661 492.34 78.0872C492.53 78.0088 492.541 78.0263 492.3 78.0785C491.778 78.1922 490.664 78.344 488.761 78.344V92.344ZM499.525 90.004L507.925 101.204C512.553 97.7332 516.645 92.124 516.645 84.544H502.645H488.645C488.645 83.1278 489.031 81.7111 489.71 80.5231C490.337 79.4259 490.993 78.9033 491.125 78.804L499.525 90.004ZM502.645 84.544H516.645C516.645 77.9864 513.615 71.7703 507.569 67.992L500.149 79.864L492.729 91.736C491.717 91.1031 490.529 90.016 489.669 88.4022C488.827 86.8245 488.645 85.3962 488.645 84.544H502.645ZM500.149 79.864L508.081 68.3274C504.955 66.1786 501.298 64.5959 497.693 63.3528L493.129 76.588L488.566 89.8232C490.993 90.6601 492.016 91.2614 492.218 91.4006L500.149 79.864ZM493.129 76.588L497.557 63.3064L491.005 61.1224L486.577 74.404L482.15 87.6856L488.702 89.8696L493.129 76.588Z" fill="white" mask="url(#path-1-outside-1_1302_5)"/>
</svg>