<svg width="549" height="216" viewBox="0 0 549 216" fill="none" xmlns="http://www.w3.org/2000/svg">
<path d="M76.596 73.464C77.324 74.608 77.948 76.168 78.468 78.144C79.092 80.016 79.404 81.992 79.404 84.072C79.404 88.128 78.52 91.04 76.752 92.808C75.088 94.472 72.8 95.304 69.888 95.304H37.128V112.932H71.292C72.124 114.076 72.8 115.584 73.32 117.456C73.944 119.328 74.256 121.304 74.256 123.384C74.256 127.336 73.372 130.196 71.604 131.964C69.94 133.628 67.652 134.46 64.74 134.46H37.44V167.376C36.296 167.688 34.476 168 31.98 168.312C29.588 168.624 27.196 168.78 24.804 168.78C22.412 168.78 20.28 168.572 18.408 168.156C16.64 167.844 15.132 167.22 13.884 166.284C12.636 165.348 11.7 164.048 11.076 162.384C10.452 160.72 10.14 158.536 10.14 155.832V87.972C10.14 83.5 11.44 79.964 14.04 77.364C16.64 74.764 20.176 73.464 24.648 73.464H76.596Z" fill="#FF0000"/>
<path d="M79.7733 120.576C79.7733 112.464 81.0213 105.288 83.5173 99.048C86.1173 92.808 89.6013 87.608 93.9693 83.448C98.4413 79.184 103.641 75.96 109.569 73.776C115.601 71.592 122.101 70.5 129.069 70.5C136.037 70.5 142.485 71.592 148.413 73.776C154.445 75.96 159.697 79.184 164.169 83.448C168.641 87.608 172.125 92.808 174.621 99.048C177.221 105.288 178.521 112.464 178.521 120.576C178.521 128.688 177.273 135.916 174.777 142.26C172.281 148.5 168.797 153.752 164.325 158.016C159.957 162.176 154.757 165.348 148.725 167.532C142.693 169.716 136.141 170.808 129.069 170.808C121.997 170.808 115.445 169.716 109.413 167.532C103.381 165.244 98.1813 161.968 93.8133 157.704C89.4453 153.44 86.0133 148.188 83.5173 141.948C81.0213 135.708 79.7733 128.584 79.7733 120.576ZM107.853 120.576C107.853 130.04 109.777 137.112 113.625 141.792C117.473 146.472 122.621 148.812 129.069 148.812C135.621 148.812 140.821 146.472 144.669 141.792C148.517 137.112 150.441 130.04 150.441 120.576C150.441 111.216 148.517 104.196 144.669 99.516C140.925 94.836 135.777 92.496 129.225 92.496C122.777 92.496 117.577 94.836 113.625 99.516C109.777 104.092 107.853 111.112 107.853 120.576Z" fill="#FFD400"/>
<path d="M213.485 137.424V167.376C212.341 167.688 210.521 168 208.025 168.312C205.633 168.624 203.241 168.78 200.849 168.78C198.457 168.78 196.325 168.572 194.453 168.156C192.685 167.844 191.177 167.22 189.929 166.284C188.785 165.348 187.901 164.048 187.277 162.384C186.653 160.72 186.341 158.536 186.341 155.832V82.356C186.341 80.172 186.913 78.508 188.057 77.364C189.305 76.116 190.969 75.128 193.049 74.4C196.585 73.152 200.693 72.268 205.373 71.748C210.053 71.124 215.045 70.812 220.349 70.812C234.701 70.812 245.517 73.828 252.797 79.86C260.077 85.892 263.717 94.056 263.717 104.352C263.717 110.8 262.053 116.312 258.725 120.888C255.397 125.464 251.445 129 246.869 131.496C250.613 136.592 254.305 141.376 257.945 145.848C261.585 150.32 264.445 154.376 266.525 158.016C265.485 161.656 263.561 164.464 260.753 166.44C258.049 168.312 254.981 169.248 251.549 169.248C249.261 169.248 247.285 168.988 245.621 168.468C243.957 167.948 242.501 167.22 241.253 166.284C240.005 165.348 238.861 164.204 237.821 162.852C236.781 161.5 235.793 160.044 234.857 158.484L221.753 137.424H213.485ZM223.313 116.676C227.265 116.676 230.385 115.688 232.673 113.712C234.961 111.632 236.105 108.616 236.105 104.664C236.105 100.712 234.805 97.748 232.205 95.772C229.709 93.692 225.705 92.652 220.193 92.652C218.633 92.652 217.385 92.704 216.449 92.808C215.513 92.912 214.473 93.068 213.329 93.276V116.676H223.313Z" fill="#FA3EAE"/>
<path d="M346.642 167.376C345.498 167.688 343.73 168 341.338 168.312C338.946 168.624 336.606 168.78 334.318 168.78C329.534 168.78 325.946 168 323.554 166.44C321.162 164.776 319.966 161.344 319.966 156.144V135.084C317.366 131.236 314.558 126.972 311.542 122.292C308.526 117.612 305.562 112.828 302.65 107.94C299.738 103.052 297.034 98.268 294.538 93.588C292.042 88.804 290.014 84.436 288.454 80.484C289.806 78.612 291.626 76.896 293.914 75.336C296.306 73.776 299.218 72.996 302.65 72.996C306.706 72.996 309.982 73.828 312.478 75.492C315.078 77.156 317.522 80.276 319.81 84.852L332.758 110.904H333.694C335.15 107.68 336.398 104.768 337.438 102.168C338.582 99.464 339.674 96.812 340.714 94.212C341.754 91.508 342.846 88.752 343.99 85.944C345.134 83.032 346.434 79.704 347.89 75.96C349.762 75.024 351.842 74.296 354.13 73.776C356.418 73.256 358.602 72.996 360.682 72.996C364.322 72.996 367.39 73.984 369.886 75.96C372.486 77.832 373.786 80.692 373.786 84.54C373.786 85.788 373.526 87.296 373.006 89.064C372.486 90.832 371.29 93.536 369.418 97.176C367.546 100.712 364.79 105.548 361.15 111.684C357.614 117.82 352.778 125.828 346.642 135.708V167.376Z" fill="#8B00FF"/>
<path d="M414.224 117.3C418.592 117.3 421.92 116.312 424.208 114.336C426.6 112.256 427.796 109.136 427.796 104.976C427.796 101.024 426.548 98.008 424.052 95.928C421.66 93.744 418.124 92.652 413.444 92.652C411.78 92.652 410.376 92.704 409.232 92.808C408.192 92.808 407.1 92.912 405.956 93.12V117.3H414.224ZM406.112 167.376C404.968 167.688 403.148 168 400.652 168.312C398.26 168.624 395.868 168.78 393.476 168.78C391.084 168.78 388.952 168.572 387.08 168.156C385.312 167.844 383.804 167.22 382.556 166.284C381.308 165.348 380.372 164.048 379.748 162.384C379.124 160.72 378.812 158.536 378.812 155.832V82.356C378.812 80.172 379.384 78.508 380.528 77.364C381.776 76.116 383.44 75.128 385.52 74.4C389.056 73.152 393.06 72.268 397.532 71.748C402.108 71.124 406.684 70.812 411.26 70.812C425.612 70.812 436.584 73.88 444.176 80.016C451.768 86.152 455.564 94.472 455.564 104.976C455.564 110.072 454.732 114.7 453.068 118.86C451.508 122.916 449.116 126.452 445.892 129.468C442.772 132.38 438.768 134.668 433.88 136.332C429.096 137.892 423.532 138.672 417.188 138.672H406.112V167.376Z" fill="#66CC00"/>
<path d="M487.727 130.404C483.151 128.844 478.991 127.284 475.247 125.724C471.503 124.06 468.279 122.084 465.575 119.796C462.871 117.508 460.739 114.804 459.179 111.684C457.723 108.46 456.995 104.56 456.995 99.984C456.995 91.144 460.375 84.072 467.135 78.768C473.999 73.464 483.567 70.812 495.839 70.812C500.311 70.812 504.471 71.124 508.319 71.748C512.167 72.372 515.443 73.36 518.147 74.712C520.955 75.96 523.139 77.624 524.699 79.704C526.259 81.68 527.039 84.02 527.039 86.724C527.039 89.428 526.415 91.768 525.167 93.744C523.919 95.616 522.411 97.228 520.643 98.58C518.355 97.124 515.287 95.876 511.439 94.836C507.591 93.692 503.379 93.12 498.803 93.12C494.123 93.12 490.691 93.796 488.507 95.148C486.323 96.396 485.231 98.008 485.231 99.984C485.231 101.544 485.907 102.844 487.259 103.884C488.611 104.82 490.639 105.704 493.343 106.536L501.611 109.188C511.387 112.308 518.875 116.312 524.075 121.2C529.379 125.984 532.031 132.536 532.031 140.856C532.031 149.696 528.547 156.872 521.579 162.384C514.611 167.792 504.367 170.496 490.847 170.496C486.063 170.496 481.591 170.08 477.431 169.248C473.375 168.52 469.787 167.428 466.667 165.972C463.651 164.412 461.259 162.54 459.491 160.356C457.827 158.068 456.995 155.468 456.995 152.556C456.995 149.54 457.879 146.992 459.647 144.912C461.415 142.728 463.339 141.064 465.419 139.92C468.331 142.208 471.867 144.184 476.027 145.848C480.291 147.512 484.919 148.344 489.911 148.344C495.007 148.344 498.595 147.564 500.675 146.004C502.755 144.444 503.795 142.624 503.795 140.544C503.795 138.464 502.963 136.904 501.299 135.864C499.635 134.72 497.295 133.628 494.279 132.588L487.727 130.404Z" fill="#448FF2"/>
<path d="M80.596 69.464C81.324 70.608 81.948 72.168 82.468 74.144C83.092 76.016 83.404 77.992 83.404 80.072C83.404 84.128 82.52 87.04 80.752 88.808C79.088 90.472 76.8 91.304 73.888 91.304H41.128V108.932H75.292C76.124 110.076 76.8 111.584 77.32 113.456C77.944 115.328 78.256 117.304 78.256 119.384C78.256 123.336 77.372 126.196 75.604 127.964C73.94 129.628 71.652 130.46 68.74 130.46H41.44V163.376C40.296 163.688 38.476 164 35.98 164.312C33.588 164.624 31.196 164.78 28.804 164.78C26.412 164.78 24.28 164.572 22.408 164.156C20.64 163.844 19.132 163.22 17.884 162.284C16.636 161.348 15.7 160.048 15.076 158.384C14.452 156.72 14.14 154.536 14.14 151.832V83.972C14.14 79.5 15.44 75.964 18.04 73.364C20.64 70.764 24.176 69.464 28.648 69.464H80.596ZM83.7733 116.576C83.7733 108.464 85.0213 101.288 87.5173 95.048C90.1173 88.808 93.6013 83.608 97.9693 79.448C102.441 75.184 107.641 71.96 113.569 69.776C119.601 67.592 126.101 66.5 133.069 66.5C140.037 66.5 146.485 67.592 152.413 69.776C158.445 71.96 163.697 75.184 168.169 79.448C172.641 83.608 176.125 88.808 178.621 95.048C181.221 101.288 182.521 108.464 182.521 116.576C182.521 124.688 181.273 131.916 178.777 138.26C176.281 144.5 172.797 149.752 168.325 154.016C163.957 158.176 158.757 161.348 152.725 163.532C146.693 165.716 140.141 166.808 133.069 166.808C125.997 166.808 119.445 165.716 113.413 163.532C107.381 161.244 102.181 157.968 97.8133 153.704C93.4453 149.44 90.0133 144.188 87.5173 137.948C85.0213 131.708 83.7733 124.584 83.7733 116.576ZM111.853 116.576C111.853 126.04 113.777 133.112 117.625 137.792C121.473 142.472 126.621 144.812 133.069 144.812C139.621 144.812 144.821 142.472 148.669 137.792C152.517 133.112 154.441 126.04 154.441 116.576C154.441 107.216 152.517 100.196 148.669 95.516C144.925 90.836 139.777 88.496 133.225 88.496C126.777 88.496 121.577 90.836 117.625 95.516C113.777 100.092 111.853 107.112 111.853 116.576ZM217.485 133.424V163.376C216.341 163.688 214.521 164 212.025 164.312C209.633 164.624 207.241 164.78 204.849 164.78C202.457 164.78 200.325 164.572 198.453 164.156C196.685 163.844 195.177 163.22 193.929 162.284C192.785 161.348 191.901 160.048 191.277 158.384C190.653 156.72 190.341 154.536 190.341 151.832V78.356C190.341 76.172 190.913 74.508 192.057 73.364C193.305 72.116 194.969 71.128 197.049 70.4C200.585 69.152 204.693 68.268 209.373 67.748C214.053 67.124 219.045 66.812 224.349 66.812C238.701 66.812 249.517 69.828 256.797 75.86C264.077 81.892 267.717 90.056 267.717 100.352C267.717 106.8 266.053 112.312 262.725 116.888C259.397 121.464 255.445 125 250.869 127.496C254.613 132.592 258.305 137.376 261.945 141.848C265.585 146.32 268.445 150.376 270.525 154.016C269.485 157.656 267.561 160.464 264.753 162.44C262.049 164.312 258.981 165.248 255.549 165.248C253.261 165.248 251.285 164.988 249.621 164.468C247.957 163.948 246.501 163.22 245.253 162.284C244.005 161.348 242.861 160.204 241.821 158.852C240.781 157.5 239.793 156.044 238.857 154.484L225.753 133.424H217.485ZM227.313 112.676C231.265 112.676 234.385 111.688 236.673 109.712C238.961 107.632 240.105 104.616 240.105 100.664C240.105 96.712 238.805 93.748 236.205 91.772C233.709 89.692 229.705 88.652 224.193 88.652C222.633 88.652 221.385 88.704 220.449 88.808C219.513 88.912 218.473 89.068 217.329 89.276V112.676H227.313ZM350.642 163.376C349.498 163.688 347.73 164 345.338 164.312C342.946 164.624 340.606 164.78 338.318 164.78C333.534 164.78 329.946 164 327.554 162.44C325.162 160.776 323.966 157.344 323.966 152.144V131.084C321.366 127.236 318.558 122.972 315.542 118.292C312.526 113.612 309.562 108.828 306.65 103.94C303.738 99.052 301.034 94.268 298.538 89.588C296.042 84.804 294.014 80.436 292.454 76.484C293.806 74.612 295.626 72.896 297.914 71.336C300.306 69.776 303.218 68.996 306.65 68.996C310.706 68.996 313.982 69.828 316.478 71.492C319.078 73.156 321.522 76.276 323.81 80.852L336.758 106.904H337.694C339.15 103.68 340.398 100.768 341.438 98.168C342.582 95.464 343.674 92.812 344.714 90.212C345.754 87.508 346.846 84.752 347.99 81.944C349.134 79.032 350.434 75.704 351.89 71.96C353.762 71.024 355.842 70.296 358.13 69.776C360.418 69.256 362.602 68.996 364.682 68.996C368.322 68.996 371.39 69.984 373.886 71.96C376.486 73.832 377.786 76.692 377.786 80.54C377.786 81.788 377.526 83.296 377.006 85.064C376.486 86.832 375.29 89.536 373.418 93.176C371.546 96.712 368.79 101.548 365.15 107.684C361.614 113.82 356.778 121.828 350.642 131.708V163.376ZM418.224 113.3C422.592 113.3 425.92 112.312 428.208 110.336C430.6 108.256 431.796 105.136 431.796 100.976C431.796 97.024 430.548 94.008 428.052 91.928C425.66 89.744 422.124 88.652 417.444 88.652C415.78 88.652 414.376 88.704 413.232 88.808C412.192 88.808 411.1 88.912 409.956 89.12V113.3H418.224ZM410.112 163.376C408.968 163.688 407.148 164 404.652 164.312C402.26 164.624 399.868 164.78 397.476 164.78C395.084 164.78 392.952 164.572 391.08 164.156C389.312 163.844 387.804 163.22 386.556 162.284C385.308 161.348 384.372 160.048 383.748 158.384C383.124 156.72 382.812 154.536 382.812 151.832V78.356C382.812 76.172 383.384 74.508 384.528 73.364C385.776 72.116 387.44 71.128 389.52 70.4C393.056 69.152 397.06 68.268 401.532 67.748C406.108 67.124 410.684 66.812 415.26 66.812C429.612 66.812 440.584 69.88 448.176 76.016C455.768 82.152 459.564 90.472 459.564 100.976C459.564 106.072 458.732 110.7 457.068 114.86C455.508 118.916 453.116 122.452 449.892 125.468C446.772 128.38 442.768 130.668 437.88 132.332C433.096 133.892 427.532 134.672 421.188 134.672H410.112V163.376ZM491.727 126.404C487.151 124.844 482.991 123.284 479.247 121.724C475.503 120.06 472.279 118.084 469.575 115.796C466.871 113.508 464.739 110.804 463.179 107.684C461.723 104.46 460.995 100.56 460.995 95.984C460.995 87.144 464.375 80.072 471.135 74.768C477.999 69.464 487.567 66.812 499.839 66.812C504.311 66.812 508.471 67.124 512.319 67.748C516.167 68.372 519.443 69.36 522.147 70.712C524.955 71.96 527.139 73.624 528.699 75.704C530.259 77.68 531.039 80.02 531.039 82.724C531.039 85.428 530.415 87.768 529.167 89.744C527.919 91.616 526.411 93.228 524.643 94.58C522.355 93.124 519.287 91.876 515.439 90.836C511.591 89.692 507.379 89.12 502.803 89.12C498.123 89.12 494.691 89.796 492.507 91.148C490.323 92.396 489.231 94.008 489.231 95.984C489.231 97.544 489.907 98.844 491.259 99.884C492.611 100.82 494.639 101.704 497.343 102.536L505.611 105.188C515.387 108.308 522.875 112.312 528.075 117.2C533.379 121.984 536.031 128.536 536.031 136.856C536.031 145.696 532.547 152.872 525.579 158.384C518.611 163.792 508.367 166.496 494.847 166.496C490.063 166.496 485.591 166.08 481.431 165.248C477.375 164.52 473.787 163.428 470.667 161.972C467.651 160.412 465.259 158.54 463.491 156.356C461.827 154.068 460.995 151.468 460.995 148.556C460.995 145.54 461.879 142.992 463.647 140.912C465.415 138.728 467.339 137.064 469.419 135.92C472.331 138.208 475.867 140.184 480.027 141.848C484.291 143.512 488.919 144.344 493.911 144.344C499.007 144.344 502.595 143.564 504.675 142.004C506.755 140.444 507.795 138.624 507.795 136.544C507.795 134.464 506.963 132.904 505.299 131.864C503.635 130.72 501.295 129.628 498.279 128.588L491.727 126.404Z" fill="white"/>
</svg>
